<?xml version="1.0" encoding="UTF-8"?> <svg xmlns="http://www.w3.org/2000/svg" xmlns:xlink="http://www.w3.org/1999/xlink" id="Outlined_Gradient" data-name="Outlined Gradient" viewBox="0 0 283.46 283.46"><defs><style>.cls-1{fill:url(#New_Gradient_Swatch_3);}.cls-2{fill:url(#linear-gradient);}.cls-3{fill:url(#linear-gradient-2);}.cls-4{fill:url(#linear-gradient-3);}</style><linearGradient id="New_Gradient_Swatch_3" x1="30.91" y1="53.37" x2="252.55" y2="230.1" gradientUnits="userSpaceOnUse"><stop offset="0" stop-color="#47abe0"></stop><stop offset="1" stop-color="#101331"></stop></linearGradient><linearGradient id="linear-gradient" x1="84.02" y1="568.27" x2="226.34" y2="693.01" gradientTransform="translate(0 -506)" xlink:href="#New_Gradient_Swatch_3"></linearGradient><linearGradient id="linear-gradient-2" x1="67.65" y1="586.94" x2="209.97" y2="711.68" gradientTransform="translate(0 -506)" xlink:href="#New_Gradient_Swatch_3"></linearGradient><linearGradient id="linear-gradient-3" x1="69.71" y1="584.58" x2="212.03" y2="709.33" gradientTransform="translate(0 -506)" xlink:href="#New_Gradient_Swatch_3"></linearGradient></defs><path class="cls-1" d="M141.73,5.6A136.13,136.13,0,0,1,238,238,136.13,136.13,0,0,1,45.47,45.47,135.25,135.25,0,0,1,141.73,5.6m0-5.6A141.73,141.73,0,1,0,283.46,141.73,141.74,141.74,0,0,0,141.73,0Z"></path><g id="Primary_Icons" data-name="Primary Icons"><rect class="cls-2" x="139.1" y="107.4" width="5.6" height="11.2"></rect><path class="cls-3" d="M144.4,160.5a14.91,14.91,0,0,1-14.4-7.9l-5,2.6a20.4,20.4,0,0,0,14,10.4V176h5.6v-9.9h.3c6.2-.6,10.9-4.1,12.5-9.3a13.57,13.57,0,0,0-1.1-10.6c-2.3-4.1-6.8-7-13.3-8.6-8.3-2.1-9.8-4.1-10.3-6a5.82,5.82,0,0,1,1-4.4c1.7-2.1,4.6-3.1,8.2-2.8a13,13,0,0,1,10,6.1l4.8-2.9a18.38,18.38,0,0,0-14.4-8.8c-5.3-.3-10,1.4-12.9,4.8a11.68,11.68,0,0,0-2.2,9.2c1.4,6.2,7.7,8.6,14.4,10.2,4.8,1.2,8.2,3.3,9.7,6a8.12,8.12,0,0,1,.6,6.1C151.2,158.1,148.3,160.2,144.4,160.5Z"></path><path class="cls-4" d="M192.7,63.2a93.18,93.18,0,0,0-81.3-10l1.8,5.3a90.36,90.36,0,0,1,25.7-4.7V70h5.6V53.7a87.69,87.69,0,0,1,41.7,12.1l-8.1,12.8,4.7,3,8.1-12.8a87.51,87.51,0,0,1,25,25.7l-13,7.7,2.8,4.8,13-7.7A89.09,89.09,0,0,1,229.6,139H215.4v5.6h14.3a87.19,87.19,0,0,1-9.2,36.5l-13.3-7.2-2.7,4.9,13.3,7.2c-.7,1.2-1.5,2.5-2.3,3.7a87.43,87.43,0,0,1-24.6,25l-8.1-12.8-4.7,3,8.1,12.8a88.71,88.71,0,0,1-41.7,12v-14h-5.6v14.1a87.58,87.58,0,0,1-41.7-12l8.1-12.8-4.7-3-8.1,12.8A87.48,87.48,0,0,1,67.6,189l13-7.7-2.8-4.8-13,7.7a87.92,87.92,0,0,1-11-39.7h16v-5.6h-16a87.11,87.11,0,0,1,2.7-19.1l3.9,7.3,4.9-2.6-8.5-15.9L40.9,117l2.6,5,7.6-4.1A93.64,93.64,0,1,0,192.7,63.2Z"></path></g></svg> 