<?xml version="1.0" encoding="UTF-8"?> <svg xmlns="http://www.w3.org/2000/svg" xmlns:xlink="http://www.w3.org/1999/xlink" id="Outlined_Gradient" data-name="Outlined Gradient" viewBox="0 0 283.46 283.46"><defs><style>.cls-1{fill:url(#New_Gradient_Swatch_3);}.cls-2{fill:url(#linear-gradient);}.cls-3{fill:url(#linear-gradient-2);}.cls-4{fill:url(#linear-gradient-3);}.cls-5{fill:url(#linear-gradient-4);}</style><linearGradient id="New_Gradient_Swatch_3" x1="30.91" y1="53.37" x2="252.55" y2="230.1" gradientUnits="userSpaceOnUse"><stop offset="0" stop-color="#47abe0"></stop><stop offset="1" stop-color="#101331"></stop></linearGradient><linearGradient id="linear-gradient" x1="40.35" y1="590.04" x2="189.37" y2="728.18" gradientTransform="translate(0 -506)" xlink:href="#New_Gradient_Swatch_3"></linearGradient><linearGradient id="linear-gradient-2" x1="77.68" y1="549.76" x2="226.7" y2="687.89" gradientTransform="translate(0 -506)" xlink:href="#New_Gradient_Swatch_3"></linearGradient><linearGradient id="linear-gradient-3" x1="58.51" y1="570.44" x2="207.53" y2="708.58" gradientTransform="translate(0 -506)" xlink:href="#New_Gradient_Swatch_3"></linearGradient><linearGradient id="linear-gradient-4" x1="58.42" y1="570.53" x2="207.45" y2="708.67" gradientTransform="translate(0 -506)" xlink:href="#New_Gradient_Swatch_3"></linearGradient></defs><path class="cls-1" d="M141.73,5.6A136.13,136.13,0,0,1,238,238,136.13,136.13,0,0,1,45.47,45.47,135.25,135.25,0,0,1,141.73,5.6m0-5.6A141.73,141.73,0,1,0,283.46,141.73,141.74,141.74,0,0,0,141.73,0Z"></path><g id="Primary_Icons" data-name="Primary Icons"><path class="cls-2" d="M92.7,187.2a68.23,68.23,0,0,1-14.6-20.3,28.82,28.82,0,0,0,12-11.2c7-12.7-.8-25.8-.8-25.8a31,31,0,0,0-16.8,16,64.64,64.64,0,0,1,.3-13.9,70.79,70.79,0,0,1,2.3-9.9,34,34,0,0,0,4.5.3,21.84,21.84,0,0,0,11.7-3.1c11.9-7.7,11.8-18.4,11.8-18.4a17.12,17.12,0,0,0-7.4-1.4,25.32,25.32,0,0,0-12.6,3.4,99.37,99.37,0,0,1,7.8-12.4,22,22,0,0,0,1.4-1.8h1.2c4.2,0,10.3-.8,14.9-5,10.4-9.6,7.8-20.9,7.8-20.9a18.13,18.13,0,0,0-5.2-.7v5.3h.2a18.48,18.48,0,0,1-6.3,12.4c-3.2,2.9-7.7,3.6-11,3.6.3-3.2,1.3-7.7,4.5-10.6,4.9-4.5,9.6-5.4,12.7-5.4V62.1h0c-4.1,0-10.2,1.2-16.3,6.8-5.5,5-6.3,12.5-6.3,16.6-.5.7-1,1.3-1.6,2a106.52,106.52,0,0,0-7.7,12C76.1,87,67.4,82.7,67.4,82.7s-8.2,6.6-5.8,21.9c1.1,7.1,5.8,12.2,9,15a78.35,78.35,0,0,0-2.8,11.6,56.08,56.08,0,0,0-.6,11.6c-8.8-11.2-18.5-11.4-18.5-11.4S44.4,147,55.2,159a27.31,27.31,0,0,0,17.9,8.9,70.06,70.06,0,0,0,5.7,10.4c-.8-.4-1.7-.9-2.6-1.3-6.2-2.7-13.5-3.3-18.7-3.3a57.92,57.92,0,0,0-7.2.4s4.6,19.6,23.5,22.5a35.17,35.17,0,0,0,5.6.4,29.82,29.82,0,0,0,13.4-3,91.53,91.53,0,0,0,8.2,6.4c-15.8.1-23.2,9.6-23.2,9.6s6.8,9.5,22.1,9.5a34.48,34.48,0,0,0,7.2-.7c13.6-2.4,16.2-11.3,16.2-11.3a44.75,44.75,0,0,0-8.7-4.5A108.8,108.8,0,0,1,92.7,187.2ZM76.4,149.5a27.75,27.75,0,0,1,10.4-12.8c1.3,4.1,2.2,10.4-1.1,16.5a22.18,22.18,0,0,1-9,8.7C75.6,158.7,74.7,153.9,76.4,149.5ZM59,155.6a24.67,24.67,0,0,1-6-18c3.5,1.4,8.5,4.7,13,12.1a33.11,33.11,0,0,1,4.3,12.6A22.56,22.56,0,0,1,59,155.6Zm36.8-51a8.08,8.08,0,0,1,1.6.1,20.2,20.2,0,0,1-8.7,10.4,16.57,16.57,0,0,1-9,2.3,15.48,15.48,0,0,1-2.2-.1,17.29,17.29,0,0,1,6.5-9,22.51,22.51,0,0,1,11.8-3.7Zm-29.1-.8c-1.1-6.8.3-11.4,1.8-14.1A23.84,23.84,0,0,1,75,103.2a16.93,16.93,0,0,1-.1,5.5c-.8,1.9-1.6,3.8-2.3,5.7a19.06,19.06,0,0,1-5.9-10.6Zm12.7,88.1a25.92,25.92,0,0,1-4.8-.4c-9.3-1.4-14.4-7.8-17-12.7,4.6,0,11.1.5,16.5,2.9A46.43,46.43,0,0,1,87,190.8a28.5,28.5,0,0,1-7.6,1.1Zm26.9,22a33.6,33.6,0,0,1-6.3.6,25.1,25.1,0,0,1-13.6-3.7,8.65,8.65,0,0,1-1-.7c.4-.3.9-.6,1.3-.9a28.43,28.43,0,0,1,14.8-3.8h.6a29.46,29.46,0,0,1,10.5,2.2c1.3.7,2.5,1.4,3.6,1.9a20.34,20.34,0,0,1-9.9,4.4Z"></path><path class="cls-3" d="M207.3,177c-.9.4-1.7.8-2.6,1.3a70.06,70.06,0,0,0,5.7-10.4,27.53,27.53,0,0,0,17.9-8.9c10.8-12,6.5-27.5,6.5-27.5s-9.7.2-18.5,11.4a74.53,74.53,0,0,0-.6-11.6,67.56,67.56,0,0,0-2.8-11.6c3.2-2.8,7.8-8,9-15,2.4-15.3-5.8-21.9-5.8-21.9s-8.7,4.3-11.8,16.8a94.12,94.12,0,0,0-7.7-12c-.5-.7-1-1.3-1.6-2,0-4-.9-11.6-6.3-16.6-6.1-5.6-12.2-6.8-16.3-6.8a18.13,18.13,0,0,0-5.2.7s-2.6,11.3,7.8,20.9c4.5,4.1,10.6,5,14.9,5h1.2a22,22,0,0,1,1.4,1.8,99.37,99.37,0,0,1,7.8,12.4,26.51,26.51,0,0,0-12.6-3.5,17.12,17.12,0,0,0-7.4,1.4s-.1,10.7,11.8,18.3a21.84,21.84,0,0,0,11.7,3.1,34,34,0,0,0,4.5-.3,64.79,64.79,0,0,1,2.3,9.9,58.83,58.83,0,0,1,.4,13.9,31.31,31.31,0,0,0-16.8-16s-7.8,13.1-.8,25.8a28.82,28.82,0,0,0,12,11.2,66.51,66.51,0,0,1-14.6,20.3,107.75,107.75,0,0,1-22,15.8,44.75,44.75,0,0,0-8.7,4.5s2.6,8.9,16.2,11.3a43.89,43.89,0,0,0,7.2.7c15.2,0,22.1-9.5,22.1-9.5s-7.3-9.5-23.2-9.6a91.53,91.53,0,0,0,8.2-6.4A29.32,29.32,0,0,0,204,197a35.17,35.17,0,0,0,5.6-.4c18.9-3,23.5-22.5,23.5-22.5a57.92,57.92,0,0,0-7.2-.4C220.8,173.7,213.5,174.3,207.3,177Zm23.2-39.4a24.67,24.67,0,0,1-6,18,22.56,22.56,0,0,1-11.3,6.7,33.7,33.7,0,0,1,4.3-12.6c4.5-7.4,9.5-10.6,13-12.1ZM172.1,67.5h.2A18.36,18.36,0,0,1,185,72.9c3.2,3,4.2,7.4,4.5,10.6-3.4,0-7.9-.7-11.1-3.6A18.69,18.69,0,0,1,172.1,67.5Zm25.7,85.7c-3.4-6.1-2.4-12.4-1.1-16.5a26.69,26.69,0,0,1,10.4,12.8c1.8,4.4.8,9.1-.3,12.4A22.18,22.18,0,0,1,197.8,153.2Zm10.7-50A23.84,23.84,0,0,1,215,89.7c1.4,2.7,2.9,7.3,1.8,14.1a20.26,20.26,0,0,1-5.8,10.6c-.7-1.9-1.5-3.8-2.3-5.7a14.49,14.49,0,0,1-.2-5.5Zm-4.8,14.2a16.57,16.57,0,0,1-9-2.3,20.2,20.2,0,0,1-8.7-10.4c.5,0,1-.1,1.6-.1a21.18,21.18,0,0,1,11.7,3.8,17.08,17.08,0,0,1,6.6,9Zm-22.1,88h.6a28.43,28.43,0,0,1,14.8,3.8c.5.3.9.6,1.4.9l-1,.7a25.1,25.1,0,0,1-13.6,3.7,34.66,34.66,0,0,1-6.4-.6,19.47,19.47,0,0,1-9.8-4.4c1.1-.5,2.2-1.2,3.6-1.9a28.06,28.06,0,0,1,10.4-2.2Zm27.3-14a25.92,25.92,0,0,1-4.8.4,27.38,27.38,0,0,1-7.6-1.1,47.05,47.05,0,0,1,12.9-9.1c5.4-2.4,12-2.9,16.5-2.9-2.6,5-7.7,11.4-17,12.7Z"></path><path class="cls-4" d="M164,164.3a1.39,1.39,0,0,0,1.7-.4,32,32,0,0,0,5.5-9,1.56,1.56,0,0,0-.4-1.8l-7.2-6.6c.1-.4.1-.8.2-1.3l8.9-3.6a1.49,1.49,0,0,0,.9-1.5,30.79,30.79,0,0,0-.8-5.3,27.57,27.57,0,0,0-1.6-5.1,1.5,1.5,0,0,0-1.4-1h-.1l-9.6.5c-.2-.4-.5-.7-.7-1.1l3.7-9.1a1.56,1.56,0,0,0-.4-1.8,32,32,0,0,0-8.8-5.8,1.27,1.27,0,0,0-.6-.1,1.61,1.61,0,0,0-1.1.5l-6.3,7.4a5,5,0,0,0-1.2-.2l-3.6-9.2a1.5,1.5,0,0,0-1.4-1h-.1a31.49,31.49,0,0,0-10.1,2.2,1.49,1.49,0,0,0-.9,1.5l.7,9.9c-.3.2-.7.5-1,.7l-8.8-4a1.27,1.27,0,0,0-.6-.1,1.61,1.61,0,0,0-1.1.5,32,32,0,0,0-5.5,9,1.74,1.74,0,0,0,.4,1.8l7.2,6.6a5,5,0,0,0-.2,1.2l-8.9,3.6a1.49,1.49,0,0,0-.9,1.5,30.79,30.79,0,0,0,.8,5.3,27.57,27.57,0,0,0,1.6,5.1,1.5,1.5,0,0,0,1.4,1h.1l9.6-.5a10.54,10.54,0,0,1,.7,1.1l-3.7,9a1.56,1.56,0,0,0,.4,1.8,32,32,0,0,0,8.8,5.8,1.27,1.27,0,0,0,.6.1,1.61,1.61,0,0,0,1.1-.5l6.3-7.4a5,5,0,0,0,1.2.2l3.6,9.2a1.5,1.5,0,0,0,1.4,1h.1a30.92,30.92,0,0,0,5.2-.7,29.11,29.11,0,0,0,5-1.6,1.54,1.54,0,0,0,.9-1.6l-.7-9.9c.3-.2.7-.5,1-.7Zm-12.3-8.4a3,3,0,0,1-.7.5l-2.6,1.8.2,3.2.5,6.8-1.3.3-1.3.3-2.5-6.4-1.1-3-3.2-.5-.9-.2-3.3-.7-2.2,2.6-4.2,4.9a22,22,0,0,1-2.5-1.7l2.6-6.4,1.2-2.9-1.8-2.5-.6-.8-1.8-2.7-3.2.2-6.5.4a9.36,9.36,0,0,1-.4-1.6c-.1-.5-.2-1.1-.3-1.6l6-2.4,3-1.2.4-3.2a4.4,4.4,0,0,1,.2-1l.6-3.1-2.3-2.1-5.1-4.7c.5-.9,1-1.7,1.6-2.6l5.8,2.7,3.1,1.4,2.7-2.1a3,3,0,0,1,.7-.5l2.6-1.8L135,122l-.4-6.8,2.6-.6,2.5,6.4,1.2,3,3.2.5.9.2,3.3.7,2.2-2.6,4.2-4.8a22,22,0,0,1,2.5,1.7l-2.6,6.3-1.2,2.9,1.9,2.5a2.18,2.18,0,0,1,.5.8l1.8,2.7,3.2-.2,6.5-.4c.1.5.3,1.1.4,1.6s.2,1.1.3,1.6l-6,2.4-3,1.2-.4,3.2c0,.3-.1.6-.1.9l-.6,3.1,2.3,2.1,5.1,4.7c-.5.9-1,1.7-1.5,2.6l-5.9-2.7-3.1-1.4Z"></path><path class="cls-5" d="M141.8,132.1a9.7,9.7,0,1,0,9.7,9.7A9.71,9.71,0,0,0,141.8,132.1Zm0,13.7a4.12,4.12,0,0,1-4.1-4.1,4.1,4.1,0,1,1,8.2,0h0a4.18,4.18,0,0,1-4.1,4.1Z"></path></g></svg> 