<?xml version="1.0" encoding="UTF-8"?> <svg xmlns="http://www.w3.org/2000/svg" xmlns:xlink="http://www.w3.org/1999/xlink" id="Outlined_Gradient" data-name="Outlined Gradient" viewBox="0 0 283.46 283.46"><defs><style>.cls-1{fill:url(#New_Gradient_Swatch_3);}.cls-2{fill:url(#linear-gradient);}.cls-3{fill:url(#linear-gradient-2);}.cls-4{fill:url(#linear-gradient-3);}.cls-5{fill:url(#linear-gradient-4);}.cls-6{fill:url(#linear-gradient-5);}</style><linearGradient id="New_Gradient_Swatch_3" x1="30.91" y1="53.37" x2="252.55" y2="230.1" gradientUnits="userSpaceOnUse"><stop offset="0" stop-color="#47abe0"></stop><stop offset="1" stop-color="#101331"></stop></linearGradient><linearGradient id="linear-gradient" x1="23.16" y1="610.58" x2="176.37" y2="762.96" gradientTransform="translate(0 -506)" xlink:href="#New_Gradient_Swatch_3"></linearGradient><linearGradient id="linear-gradient-2" x1="63.71" y1="569.81" x2="216.91" y2="722.17" gradientTransform="translate(0 -506)" xlink:href="#New_Gradient_Swatch_3"></linearGradient><linearGradient id="linear-gradient-3" x1="73.46" y1="560" x2="226.67" y2="712.37" gradientTransform="translate(0 -506)" xlink:href="#New_Gradient_Swatch_3"></linearGradient><linearGradient id="linear-gradient-4" x1="44.72" y1="588.91" x2="197.93" y2="741.28" gradientTransform="translate(0 -506)" xlink:href="#New_Gradient_Swatch_3"></linearGradient><linearGradient id="linear-gradient-5" x1="39.97" y1="593.68" x2="193.18" y2="746.05" gradientTransform="translate(0 -506)" xlink:href="#New_Gradient_Swatch_3"></linearGradient></defs><path class="cls-1" d="M141.73,5.6A136.13,136.13,0,0,1,238,238,136.13,136.13,0,0,1,45.47,45.47,135.25,135.25,0,0,1,141.73,5.6m0-5.6A141.73,141.73,0,1,0,283.46,141.73,141.74,141.74,0,0,0,141.73,0Z"></path><g id="Primary_Icons" data-name="Primary Icons"><path class="cls-2" d="M177.2,209.6a12.25,12.25,0,0,0-1.9.2l-8.7-14.2H117L109,210a11.53,11.53,0,0,0-2.6-.3,13,13,0,1,0,12.9,13,13.17,13.17,0,0,0-5.1-10.4l6.2-11.1h43.2l6.5,10.7a12.88,12.88,0,1,0,17.9,3.4,13.11,13.11,0,0,0-10.8-5.7Zm-70.9,20.1a7.3,7.3,0,1,1,7.3-7.3h0A7.34,7.34,0,0,1,106.3,229.7Zm70.9,0a7.3,7.3,0,1,1,7.3-7.3h0A7.28,7.28,0,0,1,177.2,229.7Z"></path><path class="cls-3" d="M222.4,182.3a13,13,0,0,0-12.6,10.1h-8.6l-15.1-25.5H165.2v-.4a54.14,54.14,0,0,1,4.7-22.1h17.2a12.9,12.9,0,1,0,0-6.4H173.3c.3-.6.7-1.1,1-1.7a38.54,38.54,0,0,0,6.3-20.3H186l15.1-25.5h8.6a12.91,12.91,0,1,0,0-5.6H197.9L183,110.4h-2.6a40,40,0,0,0-12.8-24.3l7.6-12.5a12.25,12.25,0,0,0,1.9.2,12.77,12.77,0,1,0-7.3-2.2L163,82.7a38.65,38.65,0,0,0-21.4-6.4,24.37,24.37,0,0,0-2.7.1,38.32,38.32,0,0,0-18.8,6.3L114,71.2a12.85,12.85,0,1,0-18-2.5,12.79,12.79,0,0,0,10.2,5.1,10.9,10.9,0,0,0,2.6-.3l7,12.5a39.09,39.09,0,0,0-12.9,24.4h-2.4L85.4,85.2H73.7a12.89,12.89,0,1,0-10.2,15.1,12.66,12.66,0,0,0,10-9.5h8.7L97.4,116h5.3c.2,9.7,4.2,15.5,8.3,21.9H96.2a12.87,12.87,0,1,0,0,6.5h18.6a45.16,45.16,0,0,1,5.1,21.8v.7H97.4L82.3,192H73.6a12.84,12.84,0,1,0-9.3,15.6,12.69,12.69,0,0,0,9.4-10H85.4l15.1-25.2H183l15.1,25.5h11.8a12.91,12.91,0,1,0,25.2-5.6,13.15,13.15,0,0,0-12.7-10Zm-22.7-48.4a7.3,7.3,0,1,1-7.3,7.3h0a7.34,7.34,0,0,1,7.3-7.3Zm22.7-53.5a7.3,7.3,0,1,1-7.3,7.3h0a7.34,7.34,0,0,1,7.3-7.3ZM177.2,53.7a7.3,7.3,0,1,1,0,14.6,7.26,7.26,0,0,1-7.3-7.2A7.36,7.36,0,0,1,177.2,53.7ZM99,61a7.3,7.3,0,1,1,7.3,7.3A7.34,7.34,0,0,1,99,61ZM61.1,95a7.3,7.3,0,1,1,7.3-7.3A7.34,7.34,0,0,1,61.1,95Zm22.7,53.4a7.3,7.3,0,1,1,7.3-7.3h0A7.34,7.34,0,0,1,83.8,148.4ZM115.2,134c-4.2-6.5-7.5-11.7-6.8-21.4A33.3,33.3,0,0,1,139.5,82c.8,0,1.6-.1,2.3-.1a33.52,33.52,0,0,1,33.3,33.5,32.84,32.84,0,0,1-5.3,17.9c-8.5,13.2-9.9,23.7-10.1,33.1v.4H125.5v-.6c0-16.1-5.5-24.6-10.3-32.2ZM61.1,202.4a7.3,7.3,0,1,1,7.3-7.3h0A7.41,7.41,0,0,1,61.1,202.4Zm161.3,0a7.3,7.3,0,1,1,7.3-7.3h0A7.41,7.41,0,0,1,222.4,202.4Z"></path><polygon class="cls-4" points="136.1 153.1 153.1 124.8 143.4 124.8 153.1 96.4 130.4 130.5 140 130.5 136.1 153.1"></polygon><rect class="cls-5" x="119.1" y="176.6" width="45.3" height="5.6"></rect><rect class="cls-6" x="119.1" y="186.1" width="45.3" height="5.6"></rect></g></svg> 