<?xml version="1.0" encoding="UTF-8"?> <svg xmlns="http://www.w3.org/2000/svg" xmlns:xlink="http://www.w3.org/1999/xlink" id="Outlined_Gradient" data-name="Outlined Gradient" viewBox="0 0 283.46 283.46"><defs><style>.cls-1{fill:url(#New_Gradient_Swatch_3);}.cls-2{fill:url(#linear-gradient);}</style><linearGradient id="New_Gradient_Swatch_3" x1="30.91" y1="53.37" x2="252.55" y2="230.1" gradientUnits="userSpaceOnUse"><stop offset="0" stop-color="#47abe0"></stop><stop offset="1" stop-color="#101331"></stop></linearGradient><linearGradient id="linear-gradient" x1="71.79" y1="600.86" x2="209.86" y2="738.94" gradientTransform="translate(0 -506)" xlink:href="#New_Gradient_Swatch_3"></linearGradient></defs><path class="cls-1" d="M141.73,5.6A136.13,136.13,0,0,1,238,238,136.13,136.13,0,0,1,45.47,45.47,135.25,135.25,0,0,1,141.73,5.6m0-5.6A141.73,141.73,0,1,0,283.46,141.73,141.74,141.74,0,0,0,141.73,0Z"></path><g id="Primary_Icons" data-name="Primary Icons"><path class="cls-2" d="M227.4,163.4H195V148.6a22.88,22.88,0,0,0,15.8-9.3c5,1.9,14.8,6.3,21.8,16.2l4.6-3.2c-9.2-13-22.3-17.6-26.6-19l-1.2-.4a32.32,32.32,0,0,1-5.4-3.7,26.78,26.78,0,0,0,9.1-20.6c0-13-8.8-22.1-21.4-22.1-10.1,0-17.8,5.9-20.4,15-4.4-3.4-10.6-5.9-14.1-7.1a19,19,0,0,1-5.2-3.7c6.1-4.2,10.2-12,10.2-20.9,0-12.6-8.5-21.4-20.6-21.4S121,57.2,121,69.7c0,8.6,3.8,16.2,9.6,20.5-.5,1.3-4.4,3.8-7.8,5.2-3.9,1.3-9,3.2-12.8,6.2-2.6-9.2-10.3-15.2-20.5-15.2-12.6,0-21.4,9.1-21.4,22.1,0,8.8,3.8,16.5,9.7,21a33.15,33.15,0,0,1-6.4,4.1,54.82,54.82,0,0,0-18,11.1,48.17,48.17,0,0,0-7.8,9.1l4.6,3.1a45.3,45.3,0,0,1,7-8.1,48.8,48.8,0,0,1,14.2-9.2,23.47,23.47,0,0,0,15.7,9v14.8H54.7v39.8H48.2v5.6h84.3v-5.6H126V163.4H92.9V148.6a23.09,23.09,0,0,0,15.8-9.3,49.51,49.51,0,0,1,31.2,45.9h5.6c0-27,18.9-41.2,28.3-45.6a23.47,23.47,0,0,0,15.7,9v14.8H156.2v39.8h-6.5v5.6H234v-5.6h-6.5Zm-107,39.8H60.3V169h60.1ZM191.9,91.9c9.4,0,15.8,6.7,15.8,16.5,0,10.8-7.1,19.6-15.8,19.6s-15.8-8.8-15.8-19.6v-.5l.2-.1c-.1-.3-.1-.5-.2-.8C176.7,97.9,182.9,91.9,191.9,91.9Zm-21.4,16.2v.3c0,8.8,3.9,16.5,9.7,21a33.88,33.88,0,0,1-6.5,4.1,32,32,0,0,0-5.6,2.7v-16H144.5V106.5a18.92,18.92,0,0,0,11.7-6.7c.6.3,1.2.5,1.6.7l.1-.2C164.1,102.7,169.1,105.8,170.5,108.1ZM126.7,69.5c0-9.4,6-15.8,15-15.8s15,6.3,15,15.8c0,10.3-6.8,18.7-15,18.7S126.7,79.9,126.7,69.5Zm15,24.3a16.54,16.54,0,0,0,5.4-.9,13,13,0,0,0,4.1,4,12.71,12.71,0,0,1-9.7,4.1,13.7,13.7,0,0,1-9.9-4.3,14.19,14.19,0,0,0,4-4.1,12.82,12.82,0,0,0,6.1,1.2Zm-16.9,6.7h0l1.9-.6a19.85,19.85,0,0,0,12.2,6.7v13.6H113V135a42.2,42.2,0,0,0-4.5-1.8l-1.2-.4a22.86,22.86,0,0,1-5.4-3.8,26.14,26.14,0,0,0,9.1-20.3c2.2-4,9.2-6.6,13.8-8.2Zm-51,7.9c0-9.9,6.3-16.5,15.8-16.5s15.8,6.7,15.8,16.5c0,10.8-7.1,19.6-15.8,19.6s-15.7-8.8-15.8-19.6ZM90,143.1a17.83,17.83,0,0,1-13.3-6,26.4,26.4,0,0,0,6.2-4.8A18.61,18.61,0,0,0,97,132a24.78,24.78,0,0,0,6.2,5A16.61,16.61,0,0,1,90,143.1Zm52.5,24.5a55.09,55.09,0,0,0-24-29.7V125.8h43.9V140a57.55,57.55,0,0,0-19.9,27.6ZM179,137.1a26.4,26.4,0,0,0,6.2-4.8,18.15,18.15,0,0,0,14.1-.3,24.78,24.78,0,0,0,6.2,5,17.53,17.53,0,0,1-26.5.1Zm-17.2,66.1V169h60.1v34.2Z"></path></g></svg> 