<?xml version="1.0" encoding="UTF-8"?> <svg xmlns="http://www.w3.org/2000/svg" xmlns:xlink="http://www.w3.org/1999/xlink" id="Outlined_Gradient" data-name="Outlined Gradient" viewBox="0 0 283.46 283.46"><defs><style>.cls-1{fill:url(#New_Gradient_Swatch_3);}.cls-2{fill:url(#linear-gradient);}.cls-3{fill:url(#linear-gradient-2);}.cls-4{fill:url(#linear-gradient-3);}.cls-5{fill:url(#linear-gradient-4);}.cls-6{fill:url(#linear-gradient-5);}.cls-7{fill:url(#linear-gradient-6);}.cls-8{fill:url(#linear-gradient-7);}</style><linearGradient id="New_Gradient_Swatch_3" x1="30.91" y1="53.37" x2="252.55" y2="230.1" gradientUnits="userSpaceOnUse"><stop offset="0" stop-color="#47abe0"></stop><stop offset="1" stop-color="#101331"></stop></linearGradient><linearGradient id="linear-gradient" x1="42.85" y1="638.42" x2="156.71" y2="743.91" gradientTransform="translate(0 -506)" xlink:href="#New_Gradient_Swatch_3"></linearGradient><linearGradient id="linear-gradient-2" x1="42.81" y1="638.47" x2="156.67" y2="743.96" gradientTransform="translate(0 -506)" xlink:href="#New_Gradient_Swatch_3"></linearGradient><linearGradient id="linear-gradient-3" x1="116.43" y1="559.01" x2="230.29" y2="664.5" gradientTransform="translate(0 -506)" xlink:href="#New_Gradient_Swatch_3"></linearGradient><linearGradient id="linear-gradient-4" x1="116.44" y1="559" x2="230.3" y2="664.49" gradientTransform="translate(0 -506)" xlink:href="#New_Gradient_Swatch_3"></linearGradient><linearGradient id="linear-gradient-5" x1="75.78" y1="602.88" x2="189.64" y2="708.37" gradientTransform="translate(0 -506)" xlink:href="#New_Gradient_Swatch_3"></linearGradient><linearGradient id="linear-gradient-6" x1="57.43" y1="622.68" x2="171.29" y2="728.17" gradientTransform="translate(0 -506)" xlink:href="#New_Gradient_Swatch_3"></linearGradient><linearGradient id="linear-gradient-7" x1="65.8" y1="613.65" x2="179.66" y2="719.14" gradientTransform="translate(0 -506)" xlink:href="#New_Gradient_Swatch_3"></linearGradient></defs><path class="cls-1" d="M141.73,5.6A136.13,136.13,0,0,1,238,238,136.13,136.13,0,0,1,45.47,45.47,135.25,135.25,0,0,1,141.73,5.6m0-5.6A141.73,141.73,0,1,0,283.46,141.73,141.74,141.74,0,0,0,141.73,0Z"></path><g id="Primary_Icons" data-name="Primary Icons"><path class="cls-2" d="M78.1,177.8l-.7,1.7a24.44,24.44,0,0,0-1.4,4.6,26.26,26.26,0,0,0-.6,4.8l-.1,1.8,7.6,3.8-5.7,5.9.8,1.7a27.34,27.34,0,0,0,5.4,8.1l1.2,1.3,8.1-2.5.3,8.3,1.7.7a31.76,31.76,0,0,0,9.6,2.1l1.8.1,3.8-7.4,6.3,5.7,1.6-.7a28.61,28.61,0,0,0,8.3-5.1l1.4-1.2-2.7-7.8,8.4-.2.7-1.7a30.52,30.52,0,0,0,2.1-9.4l.1-1.8-7.6-3.8,5.7-5.9-.8-1.7a27.34,27.34,0,0,0-5.4-8.1l-1.2-1.3-8.1,2.5-.4-8.3-1.7-.7a31.76,31.76,0,0,0-9.6-2.1l-1.8-.1-3.8,7.4-6.3-5.7-1.6.7a28.61,28.61,0,0,0-8.3,5.1l-1.4,1.2,2.7,7.8Zm16-8.4,6.7,6.1,1.4-.3a2.77,2.77,0,0,1,.9-.1l1.4-.2,4.1-7.8a17,17,0,0,1,2.2.4l2.2.6.4,8.8,1.2.8.8.5,1.1.8,8.7-2.7a22.55,22.55,0,0,1,2.4,3.6l-6.2,6.4.3,1.5c.1.3.1.6.2.9l.2,1.4,8.1,4.1a25.85,25.85,0,0,1-.9,4l-9.1.2-.8,1.2c-.2.2-.3.5-.5.7l-.9,1.2,2.9,8.4a20,20,0,0,1-3.7,2.2l-6.7-6.1-1.4.3-.9.1-1.4.2-4.1,7.8a14.35,14.35,0,0,1-2.2-.4l-2.2-.6-.4-8.8-1.2-.8a5.58,5.58,0,0,0-.8-.5l-1.1-.8-8.7,2.7a22.55,22.55,0,0,1-2.4-3.6l6.2-6.4-.3-1.5c-.1-.3-.1-.6-.2-.9l-.2-1.4-8.1-4c.1-.7.2-1.4.3-2a14.62,14.62,0,0,1,.5-2l9-.3.8-1.2c.2-.2.3-.5.5-.7l.9-1.2-2.9-8.4a38.39,38.39,0,0,1,3.9-2.2Z"></path><path class="cls-3" d="M105.7,199.2a8.5,8.5,0,1,0-8.5-8.5h0A8.37,8.37,0,0,0,105.7,199.2Zm0-11.4a2.9,2.9,0,1,1-2.9,2.9h0a2.78,2.78,0,0,1,2.9-2.9Z"></path><path class="cls-4" d="M216.4,112.3a40,40,0,0,0,0-13.8l-14.8-3.7-.6-1.5,7.8-12.7a42.32,42.32,0,0,0-10.1-9.7l-13.1,7.5c-.5-.2-1-.4-1.6-.6l-3.8-14.2a49,49,0,0,0-14.3,0L162,77.8c-.5.2-1.1.4-1.6.6L147.3,71a44.35,44.35,0,0,0-10.1,9.7c-.5.7,7.8,12.7,7.8,12.7-.2.5-.5,1-.7,1.5l-14.8,3.7a40,40,0,0,0,0,13.8l14.8,3.7a10.09,10.09,0,0,0,.7,1.5l-7.8,12.6a40.47,40.47,0,0,0,10.1,9.7l13.1-7.5c.5.2,1,.4,1.6.6l3.8,14.2a42.9,42.9,0,0,0,14.3,0l3.8-14.3c.5-.2,1-.4,1.6-.6l13.1,7.5a44.35,44.35,0,0,0,10.1-9.7l-7.8-12.6c.2-.5.5-1,.7-1.5Zm-20.2,8.1,5.7,9.2a41.19,41.19,0,0,1-3.7,3.5l-9.9-5.7-2.4-1.4-2.6,1.1a6.94,6.94,0,0,1-1.3.5l-2.7,1-.8,2.8L175.7,142a36.5,36.5,0,0,1-5.4,0l-2.8-10.6-.8-2.8-2.7-1c-.4-.2-.9-.3-1.3-.5l-2.6-1.1-2.4,1.4-9.9,5.6c-1.3-1.1-2.5-2.3-3.7-3.5l5.7-9.2,1.6-2.6-1.3-2.7a6.12,6.12,0,0,1-.5-1.2l-1.1-2.7-2.8-.7-11-2.7a28.85,28.85,0,0,1,0-4.8l11-2.7,2.8-.7,1.1-2.6c.2-.4.3-.8.5-1.2l1.4-2.9-1.8-2.7c-2-2.9-4.3-6.4-5.8-8.7a35,35,0,0,1,3.9-3.8l9.9,5.7,2.4,1.4,2.6-1.1,1.3-.5,2.7-1,.8-2.8,2.8-10.5a36.5,36.5,0,0,1,5.4,0l2.8,10.5.8,2.8,2.7,1c.5.2.9.3,1.3.5l2.6,1.1,2.4-1.4,9.9-5.6c1.3,1.1,2.5,2.3,3.7,3.5l-5.7,9.2-1.6,2.5,1.3,2.7a6.12,6.12,0,0,1,.5,1.2l1.1,2.7,2.8.7,11,2.7a36.84,36.84,0,0,1,0,4.7l-11,2.7-2.8.7-1.1,2.7c-.2.4-.3.8-.5,1.2l-1.3,2.7Z"></path><path class="cls-5" d="M173,91.8a13.6,13.6,0,1,0,13.6,13.6A13.61,13.61,0,0,0,173,91.8Zm0,21.6a8,8,0,1,1,8-8A8,8,0,0,1,173,113.4Z"></path><path class="cls-6" d="M133.1,145.9c-4.3-8.3-8.8-16.9-11.6-25.1-5.7-16-3.8-32.3,5.3-45.8,8.2-12.2,21.4-20.3,34.5-21l-.3-5.6c-14.8.8-29.7,9.8-38.9,23.4-10,15-12.1,33-5.9,50.8,3,8.5,7.6,17.3,11.9,25.8,5.8,11.3,11.4,21.9,13.5,32,4,18.7-1.9,35.2-15.8,44.1-7.3,4.6-27.2,9-42.5-1.4A38.41,38.41,0,0,1,67,197c-1.9-11.9.9-28.2,14.4-38.6L78,153.9c-15.5,11.8-18.7,30.4-16.5,43.9A43.14,43.14,0,0,0,105.3,235c10,0,19-2.8,23.5-5.8,16-10.2,22.8-28.9,18.2-50C144.8,168.4,138.9,157,133.1,145.9Z"></path><path class="cls-7" d="M99,151.2l-1.2-5.5a52.47,52.47,0,0,0-11,3.6l2.3,5.1A67.26,67.26,0,0,1,99,151.2Z"></path><path class="cls-8" d="M111.7,151.1l1.1-5.5a40.36,40.36,0,0,0-6.9-.7l.1,5.6A55.09,55.09,0,0,1,111.7,151.1Z"></path></g></svg> 