<svg width="250" height="250" viewBox="0 0 250 250" fill="none" xmlns="http://www.w3.org/2000/svg">
<rect x="12" y="13" width="225" height="225" fill="#47ABE1"/>
<path d="M186.755 99.9697C186.755 99.9697 185.534 91.3516 181.774 87.5674C177.014 82.5869 171.691 82.5625 169.25 82.2695C151.77 81 125.524 81 125.524 81H125.476C125.476 81 99.2305 81 81.75 82.2695C79.3086 82.5625 73.9863 82.5869 69.2256 87.5674C65.4658 91.3516 64.2695 99.9697 64.2695 99.9697C64.2695 99.9697 63 110.102 63 120.209V129.682C63 139.789 64.2451 149.921 64.2451 149.921C64.2451 149.921 65.4658 158.539 69.2012 162.323C73.9619 167.304 80.2119 167.133 82.9951 167.67C93.0049 168.622 125.5 168.915 125.5 168.915C125.5 168.915 151.77 168.866 169.25 167.621C171.691 167.328 177.014 167.304 181.774 162.323C185.534 158.539 186.755 149.921 186.755 149.921C186.755 149.921 188 139.813 188 129.682V120.209C188 110.102 186.755 99.9697 186.755 99.9697ZM112.585 141.181V106.049L146.35 123.676L112.585 141.181Z" fill="white"/>
</svg>
