<?xml version="1.0" encoding="UTF-8"?> <!-- Generator: Adobe Illustrator 25.0.1, SVG Export Plug-In . SVG Version: 6.00 Build 0) --> <svg xmlns="http://www.w3.org/2000/svg" xmlns:xlink="http://www.w3.org/1999/xlink" version="1.1" id="layer" x="0px" y="0px" width="608px" height="135px" viewBox="0 0 608 135" style="enable-background:new 0 0 608 135;" xml:space="preserve"> <style type="text/css"> .st0{fill:#5B6670;} .st1{fill:#00B2E3;} </style> <path class="st0" d="M56.1,67.4h26.1v19.1c-7.2,5.1-15.8,7.8-24.6,7.7c-20.9,0-34.7-15.4-34.7-36.5v-0.3c0-19.5,14.3-36,33.1-36 c10.7-0.3,21,3.6,28.7,10.9L96,18.7C85.5,9.8,74.6,4.8,56.7,4.8C28,4.5,4.4,27.5,4,56.2c0,0.5,0,0.9,0,1.4v0.3 c0,29.8,21,52.5,52.9,52.5c15.7,0,30.8-5.7,42.6-16V51.6H56L56.1,67.4L56.1,67.4z M140.2,30.8c-10.1-0.2-20.2,2-29.3,6.4l4.9,14.2 c6.9-3.1,14.4-4.8,22-4.8c12.3,0,19,5.8,19,16.5v1.4c-6.9-2.2-14.1-3.3-21.3-3.2c-17.9,0-31.2,8.2-31.2,25.2v0.3 c0,15.5,12.8,23.8,27.4,23.8c9.6,0.3,18.8-3.7,25-11.1v9.6h17.5V63.3C174.1,42.7,163,30.8,140.2,30.8 M157,81.1 c0,9.6-8.8,16.2-20.4,16.2c-8.3,0-14.9-4.1-14.9-11.4v-0.3c0-7.4,6.6-12,17.6-12c6,0,12,1.1,17.7,3.2C157,76.8,157,81.1,157,81.1z M184,32h17.6v77H184V32z M183.2,3.5h19v16.8h-19C183.2,20.3,183.2,3.5,183.2,3.5z M229.9,65.6c0-12,7.1-19.1,17.4-19.1 s16.5,6.9,16.5,18.8v43.8h17.6v-49c0-17.9-10.1-29.6-27.4-29.6c-9.9-0.1-19,5.1-24.1,13.6v-12h-17.7v77h17.6V65.6H229.9z M317.1,96.6c-9.2-0.4-18.1-3.8-25.2-9.6L284,99c9.4,7.4,20.9,11.4,32.8,11.6c16,0,28.7-8,28.7-24.2v-0.3c0-13.9-12.8-19-23.9-22.3 c-9.3-3-17.6-5.4-17.6-10.9v-0.3c0-4.5,3.9-7.8,10.8-7.8c7.8,0.5,15.2,3,21.7,7.3l7-12.5c-8.4-5.5-18.2-8.6-28.3-8.8 c-15.3,0-27.4,8.9-27.4,23.5v0.3c0,14.7,12.8,19.4,24.1,22.6C321,80,329.1,82,329.1,88v0.3C329.1,93.4,324.7,96.6,317.1,96.6 M349.6,3.2h19V20h-19V3.2z M350.3,32v77h7H368v-4.3V32H350.3z M435.9,43.3c-6.4-8.4-16.4-13.3-27-13.1 c-17.6-0.3-32.5,12.8-34.7,30.2c-0.3,2-0.4,4-0.4,6v0.3c-0.4,11.4,4.9,22.4,14,29.2c1.2,0.8,2.4,1.6,3.7,2.3l0.9,0.5l27.4-11.8 c-1,0.3-2.1,0.5-3.2,0.7c-1.1,0.1-2.1,0.2-3.2,0.2h-1.6c-1-0.1-2-0.2-3-0.4c-4.2-0.7-8.1-2.7-11.1-5.7c-1.2-1.3-2.3-2.7-3.2-4.2 c-0.3-0.5-0.5-1-0.8-1.5c-0.8-1.6-1.3-3.3-1.6-5.1c0-0.2,0-0.4,0-0.6c-0.2-1.2-0.3-2.5-0.3-3.7v-0.4c0-1.5,0.1-3,0.4-4.5 c0-0.4,0.2-0.9,0.3-1.3c0.3-1,0.6-1.9,1-2.8c0.5-1.3,1.2-2.5,2-3.6c1.6-2.2,3.6-4.1,5.9-5.6c3.7-2.2,8-3.3,12.3-3.2 c4.2,0,8.3,1.1,11.9,3.2l1.3,0.8c0.9,0.6,1.8,1.3,2.7,2c1.5,1.4,2.9,3,3.9,4.9c0.4,0.6,0.7,1.2,1,1.9c0.4,0.9,0.7,1.8,1,2.7 c0.5,1.9,0.8,4,0.8,6V67c0,1.8-0.3,3.6-0.7,5.4c-0.5,2-1.4,3.9-2.5,5.6c-0.3,0.5-0.6,1-1,1.4c-0.7,0.9-1.5,1.7-2.3,2.5l-1.3,1.1 c-0.4,0.3-0.7,0.6-1.1,0.9l-1,0.6l27.2-12V31.7H436L435.9,43.3L435.9,43.3z M481.2,60.1c0.2-0.8,0.4-1.7,0.7-2.5 c1-3.4,3.2-6.3,6.1-8.4c1.4-1,3-1.8,4.6-2.2c1.8-0.5,3.6-0.8,5.5-0.8c0.7,0,1.5,0,2.2,0c1.3,0.1,2.6,0.4,3.9,0.9 c0.6,0.2,1.2,0.5,1.8,0.7c0.6,0.3,1.2,0.6,1.8,1c0.1,0.1,0.2,0.2,0.3,0.3l19.1-8.2v-0.2c-0.3-0.4-0.5-0.8-0.8-1.1 c-5.2-6.4-13.2-10-21.4-9.6c-10-0.1-19.2,5.2-24.2,13.8V2.3H463v66.2l18.1-7.8 M558,10.6h-17.6v23v1.1l17.6-7.4V10.6z"></path> <path class="st1" d="M423.4,85.8c-1.1,0.5-2.3,0.9-3.4,1.2l-27.4,11.8c5.1,2.6,10.7,4,16.3,4c10.9,0.1,21.1-5.2,27.2-14.2v6 c0.2,5.2-1.1,10.3-3.9,14.7c-4,5.9-10.9,8.9-20.5,8.9c-9.7,0-19.3-2.8-27.4-8.2l-6.6,13.3c10.4,6.1,22.3,9.3,34.4,9.2 c13.9,0,24.6-3.4,31.7-10.4c3.5-3.6,6.1-8,7.5-12.8c1.6-5.2,2.3-10.7,2.2-16.2V72.5l-27.3,11.7C425.3,84.8,424.4,85.3,423.4,85.8 M507.9,49.3c3.5,2.7,5.7,6.8,6.2,11.2c0.2,1.5,0.4,3.1,0.4,4.7V109h17.6V59.9c0.2-6.6-1.6-13.2-5.1-18.8L507.9,49.3z M463,108.8 h17.6V65.3c0-1.5,0.1-3.1,0.4-4.6l-18.1,7.8v40.3H463z M604,9.9V8.1l0,0l0,0l-37.4,15.6l-26.2,11v52.8c0,13.2,5.6,19.6,14.3,21.7 c2.6,0.6,5.2,0.9,7.9,0.9c2.7,0,5.5-0.3,8.1-0.9c2.7-0.7,5.3-1.7,7.8-3.2V91.6c-3.4,1.8-7.1,2.7-10.9,2.6c-6,0-9.6-2.8-9.6-9.6V46.3 l45.9-19.1l0,0l0,0L604,9.9z"></path> </svg> 