<?xml version="1.0" encoding="UTF-8"?> <!-- Generator: Adobe Illustrator 23.0.6, SVG Export Plug-In . SVG Version: 6.00 Build 0) --> <svg xmlns="http://www.w3.org/2000/svg" xmlns:xlink="http://www.w3.org/1999/xlink" id="Layer_1" x="0px" y="0px" width="365.4px" height="71.8px" viewBox="0 0 365.4 71.8" style="enable-background:new 0 0 365.4 71.8;" xml:space="preserve"> <g> <path style="fill:#231F20;" d="M134.3,16.9h17.5l-36.1,53.7H110L73,16.9h17.7l22.2,33.7L134.3,16.9z"></path> <path style="fill:#231F20;" d="M226.9,45.1l-59.1,0.1c0,4.7,3.9,9.4,9.1,11.5c7.3,3.1,11.6,3.4,19.9,3.4c11,0,19.9-2.1,28.9-6.6 v11.1c-5.8,3.9-16.9,7.1-31.5,7.1c-9.8,0-18.5-1-24.5-3.9c-6-2.8-9-4.9-12.1-9.6c-3-4.4-4.9-9.5-4.9-15c0-8.3,3.4-14.6,9.6-20.1 c6.9-6.2,17.2-7.9,29.5-7.9c11.9,0,20.8,3.4,27.1,9.3c6.6,6.1,8,13.1,8,19.3V45.1z M169.1,35.3l42.1,0c-0.9-3.3-3.3-5.9-6.7-7.8 c-3.4-1.9-7.6-3.3-13.4-3.3c-5.7,0-10.1,0.9-14.2,3C173.3,29.1,170.4,32,169.1,35.3z"></path> <path style="fill:#231F20;" d="M254.8,16.9v6.7c7.5-5.3,16.8-7.9,26-7.9c5.1,0,9.9,0.9,14.3,2.6c4.4,1.7,7.2,4,9.3,7.1 c2.3,3.3,3.5,7.8,3.5,14.3v30.7h-15.3V42.3c0-5.5-2.1-9.4-4.7-11.8c-2.6-2.3-6.8-3.9-12.9-3.9c-7.7,0-14.7,2.9-20.2,7.9v35.8h-15.6 V16.9H254.8z"></path> <path style="fill:#231F20;" d="M314.3,25.5L341,0l0.9,0v15.4h20.9v12.1h-20.9v21.7c0,6.7,4.1,10.1,10.6,10.1 c4.7,0,8.4-1.1,12.9-4.1v12.4c-5.4,2.7-9.4,3.8-16.4,3.8c-6.3,0-9.5-1-14.1-4.1c-1.5-0.9-2.7-2.3-3.6-3.5c-1-1.2-1.9-2.9-2.5-4.8 c-0.6-1.9-1-5.5-1-10.9V27.4h-13.5V25.5z"></path> <path style="fill:#1EA9E1;" d="M67.7,56v12.8c-8.6,2-17,3-25.3,3c-13.6,0-23.6-2.5-31.3-7.6C3.5,59.2,0,52.5,0,44 c0-8.6,3.3-15.7,10.7-20.9c7.5-5.2,17.1-7.6,29.9-7.6c4.5,0,8.5,0.3,12,0.8c3.6,0.5,7.9,1.5,13.2,3v13.1 c-8.7-3.5-15.8-4.8-24.2-4.8c-7.2,0-14.9,1.8-19.3,4.6c-4.9,3.1-6.6,7.6-6.6,11.6c0,4.7,2.8,8.7,7.3,11.6c4.8,3,13.8,4.4,21.8,4.4 C51.5,59.6,59.1,58.4,67.7,56z"></path> </g> </svg> 