<?xml version="1.0" encoding="UTF-8"?> <svg xmlns="http://www.w3.org/2000/svg" width="548" height="120" viewBox="0 0 548 120" fill="none"><mask id="mask0_914_5" style="mask-type:luminance" maskUnits="userSpaceOnUse" x="0" y="1" width="548" height="117"><path d="M548 1.14258H0V117.143H548V1.14258Z" fill="white"></path></mask><g mask="url(#mask0_914_5)"><path d="M35.8883 18.6084L21.8616 32.486C21.0319 33.3069 19.6867 33.3069 18.8571 32.486L4.83027 18.6084C4.00059 17.7876 4.00059 16.4567 4.83027 15.6358L18.8569 1.75824C19.6867 0.937357 21.0318 0.937357 21.8615 1.75824L35.8882 15.6358C36.718 16.4567 36.718 17.7876 35.8883 18.6084Z" fill="#00BD4D"></path><path d="M503.008 76.0092L527.928 112.598C528.824 113.862 527.848 115.544 526.216 115.544H505.276C503.876 115.544 502.568 114.86 501.772 113.717L487.368 91.9092L472.964 113.717C472.172 114.86 470.86 115.544 469.46 115.544H448.52C446.888 115.544 445.912 113.862 446.808 112.598L471.652 76.0092L446.808 39.4204C445.912 38.1568 446.888 36.4746 448.52 36.4746H470.352C471.172 36.4746 471.932 36.8473 472.356 37.4576L487.368 60.0768L501.456 37.4664C501.876 36.8512 502.64 36.4747 503.464 36.4747H525.508C527.14 36.4747 528.116 38.1522 527.224 39.4162L503.008 76.0092Z" fill="#101820"></path><path d="M162.99 4.53223H145.624C143.933 4.53223 142.312 5.19655 141.117 6.37919L124.8 22.5227C123.605 23.7053 122.933 25.3092 122.933 26.9817V39.6871H113.193C112.04 39.6871 111.105 40.612 111.105 41.7528V56.014C111.105 57.1548 112.04 58.0796 113.193 58.0796H122.933V113.442C122.933 114.602 123.885 115.544 125.058 115.544H143.382C144.555 115.544 145.507 114.603 145.507 113.442V58.0796H160.06C161.213 58.0796 162.148 57.1548 162.148 56.014V41.7528C162.148 40.612 161.213 39.6872 160.06 39.6872H145.507V30.6758C145.507 27.1931 148.361 24.3699 151.881 24.3699H162.99C164.164 24.3699 165.115 23.4288 165.115 22.2678V6.63419C165.115 5.47331 164.164 4.53223 162.99 4.53223Z" fill="#101820"></path><path d="M548 108.06C548 112.902 544.084 116.776 539.172 116.776C534.368 116.776 530.416 112.867 530.416 108.06C530.416 103.235 534.332 99.3788 539.208 99.3788C544.084 99.3788 548 103.235 548 108.06ZM546.648 108.095C546.648 103.922 543.32 100.611 539.208 100.611C535.096 100.611 531.768 103.887 531.768 108.078C531.768 112.216 535.132 115.544 539.172 115.544C543.32 115.544 546.648 112.251 546.648 108.095ZM541.096 109.468L543.3 112.867H541.844L539.384 109.011H539.064H537.144V112.867H535.916V103.112H539.74C541.628 103.112 542.856 104.116 542.856 105.982C542.856 107.497 541.932 108.43 540.612 108.799C540.792 108.993 540.968 109.239 541.096 109.468ZM539.332 107.866C540.72 107.866 541.576 107.214 541.576 106.07C541.576 104.96 540.988 104.256 539.776 104.256H537.144V107.866H539.332Z" fill="#101820"></path><path d="M361.825 115.544H343.5C342.327 115.544 341.376 114.603 341.376 113.442V6.63419C341.376 5.47331 342.327 4.53223 343.5 4.53223H361.825C362.998 4.53223 363.95 5.47331 363.95 6.63419V113.442C363.95 114.603 362.998 115.544 361.825 115.544Z" fill="#101820"></path><path d="M297.706 34.8084C287.285 34.8084 278.626 39.2721 273.175 46.6032V6.63419C273.175 5.47331 272.224 4.53223 271.05 4.53223H252.726C251.553 4.53223 250.602 5.47331 250.602 6.63419V113.442C250.602 114.602 251.552 115.544 252.726 115.544H271.05C272.224 115.544 273.175 114.603 273.175 113.442V105.571C278.626 112.902 287.285 117.142 297.868 117.142C320.155 117.142 335.325 99.356 335.325 76.0872C335.325 52.818 320.156 34.8084 297.706 34.8084ZM293.217 96.1684C281.673 96.1684 273.175 86.924 273.175 76.0868C273.175 65.25 281.673 56.164 293.217 56.164C304.602 56.164 312.939 65.25 312.939 76.0868C312.939 86.924 304.602 96.1684 293.217 96.1684Z" fill="#101820"></path><path d="M203.406 34.8086C180.148 34.8086 162.147 52.7352 162.147 75.8968C162.147 99.0584 180.148 117.142 203.406 117.142C226.664 117.142 244.665 99.0584 244.665 75.8968C244.665 52.7352 226.664 34.8086 203.406 34.8086ZM203.488 95.948C192.129 95.948 183.569 86.792 183.569 75.8972C183.569 65.0024 192.129 56.0032 203.488 56.0032C215.011 56.0032 223.243 65.0024 223.243 75.8972C223.243 86.792 215.011 95.948 203.488 95.948Z" fill="#101820"></path><path d="M411.144 34.8086C387.885 34.8086 369.884 52.7352 369.884 75.8968C369.884 99.0584 387.885 117.142 411.144 117.142C434.4 117.142 452.4 99.0584 452.4 75.8968C452.4 52.7352 434.4 34.8086 411.144 34.8086ZM411.224 95.948C399.865 95.948 391.306 86.792 391.306 75.8972C391.306 65.0024 399.865 56.0032 411.224 56.0032C422.748 56.0032 430.98 65.0024 430.98 75.8972C430.98 86.792 422.748 95.948 411.224 95.948Z" fill="#101820"></path><path d="M20.4491 115.544H2.12456C0.951216 115.544 0 114.602 0 113.442V57.1424C0 56.0112 0.460944 54.9276 1.27856 54.1364L18.9638 37.029C20.309 35.7278 22.5737 36.6706 22.5737 38.532V113.442C22.5737 114.602 21.6224 115.544 20.4491 115.544Z" fill="#101820"></path><path d="M108.096 63.182C108.096 47.8396 95.286 34.9774 79.15 34.7912C68.6484 34.6698 61.5564 39.7633 57.0164 46.638V38.5764C57.0164 37.4157 56.0652 36.4747 54.892 36.4747H36.5668C35.3937 36.4747 34.4424 37.4157 34.4424 38.5764V113.442C34.4424 114.603 35.3937 115.544 36.5668 115.544H54.892C56.0652 115.544 57.0164 114.603 57.0164 113.442V69.9004C57.5228 61.5236 62.8884 56.308 71.268 56.308C79.9872 56.308 85.5228 62.1612 85.5228 70.862V113.442C85.5228 114.603 86.4744 115.544 87.6476 115.544H105.972C107.146 115.544 108.097 114.603 108.097 113.442L108.096 63.182Z" fill="#101820"></path></g></svg> 