<svg width="250" height="250" viewBox="0 0 250 250" fill="none" xmlns="http://www.w3.org/2000/svg">
<rect x="12" y="13" width="225" height="225" fill="#47ABE1"/>
<path d="M178.747 63H72.2285C67.126 63 63 67.0283 63 72.0088V178.967C63 183.947 67.126 188 72.2285 188H178.747C183.85 188 188 183.947 188 178.991V72.0088C188 67.0283 183.85 63 178.747 63ZM100.085 169.519H81.5303V109.851H100.085V169.519ZM90.8076 101.721C84.8506 101.721 80.041 96.9111 80.041 90.9785C80.041 85.0459 84.8506 80.2363 90.8076 80.2363C96.7402 80.2363 101.55 85.0459 101.55 90.9785C101.55 96.8867 96.7402 101.721 90.8076 101.721ZM169.519 169.519H150.988V140.515C150.988 133.605 150.866 124.694 141.345 124.694C131.701 124.694 130.236 132.238 130.236 140.026V169.519H111.73V109.851H129.504V118.005H129.748C132.214 113.317 138.269 108.361 147.277 108.361C166.052 108.361 169.519 120.715 169.519 136.779V169.519Z" fill="white"/>
</svg>
