<svg width="250" height="250" viewBox="0 0 250 250" fill="none" xmlns="http://www.w3.org/2000/svg">
<rect x="12" y="13" width="225" height="225" fill="#47ABE1"/>
<path d="M125.537 73.2615C142.246 73.2615 144.224 73.3348 150.796 73.6279C156.903 73.8966 160.201 74.9226 162.399 75.7776C165.306 76.9013 167.407 78.2693 169.581 80.4434C171.78 82.642 173.123 84.7184 174.247 87.6254C175.102 89.8239 176.128 93.1462 176.397 99.2288C176.69 105.825 176.763 107.803 176.763 124.488C176.763 141.197 176.69 143.175 176.397 149.747C176.128 155.854 175.102 159.152 174.247 161.35C173.123 164.257 171.755 166.358 169.581 168.532C167.382 170.731 165.306 172.074 162.399 173.198C160.201 174.053 156.878 175.079 150.796 175.348C144.2 175.641 142.221 175.714 125.537 175.714C108.828 175.714 106.849 175.641 100.278 175.348C94.1706 175.079 90.8728 174.053 88.6742 173.198C85.7672 172.074 83.6664 170.706 81.4923 168.532C79.2937 166.334 77.9502 164.257 76.8265 161.35C75.9715 159.152 74.9455 155.829 74.6768 149.747C74.3836 143.151 74.3103 141.172 74.3103 124.488C74.3103 107.779 74.3836 105.8 74.6768 99.2288C74.9455 93.1217 75.9715 89.8239 76.8265 87.6254C77.9502 84.7184 79.3182 82.6175 81.4923 80.4434C83.6908 78.2449 85.7672 76.9013 88.6742 75.7776C90.8728 74.9226 94.195 73.8966 100.278 73.6279C106.849 73.3348 108.828 73.2615 125.537 73.2615ZM125.537 62C108.559 62 106.434 62.0733 99.7647 62.3664C93.1202 62.6596 88.5521 63.7344 84.5947 65.2734C80.4663 66.8857 76.973 69.0109 73.5042 72.5042C70.0109 75.973 67.8857 79.4663 66.2734 83.5703C64.7344 87.5521 63.6596 92.0958 63.3664 98.7403C63.0733 105.434 63 107.559 63 124.537C63 141.514 63.0733 143.64 63.3664 150.309C63.6596 156.953 64.7344 161.521 66.2734 165.479C67.8857 169.607 70.0109 173.1 73.5042 176.569C76.973 180.038 80.4663 182.188 84.5703 183.775C88.5521 185.314 93.0958 186.389 99.7403 186.682C106.409 186.976 108.534 187.049 125.512 187.049C142.49 187.049 144.615 186.976 151.284 186.682C157.929 186.389 162.497 185.314 166.454 183.775C170.558 182.188 174.051 180.038 177.52 176.569C180.989 173.1 183.139 169.607 184.727 165.503C186.266 161.521 187.34 156.978 187.634 150.333C187.927 143.664 188 141.539 188 124.561C188 107.583 187.927 105.458 187.634 98.7891C187.34 92.1446 186.266 87.5765 184.727 83.6191C183.188 79.4663 181.062 75.973 177.569 72.5042C174.1 69.0354 170.607 66.8857 166.503 65.2978C162.521 63.7588 157.978 62.684 151.333 62.3909C144.64 62.0733 142.514 62 125.537 62Z" fill="white"/>
<path d="M125.537 92.4133C107.802 92.4133 93.4133 106.802 93.4133 124.537C93.4133 142.272 107.802 156.66 125.537 156.66C143.272 156.66 157.66 142.272 157.66 124.537C157.66 106.802 143.272 92.4133 125.537 92.4133ZM125.537 145.374C114.031 145.374 104.699 136.042 104.699 124.537C104.699 113.031 114.031 103.699 125.537 103.699C137.042 103.699 146.374 113.031 146.374 124.537C146.374 136.042 137.042 145.374 125.537 145.374Z" fill="white"/>
<path d="M166.43 91.1428C166.43 95.2957 163.059 98.6424 158.93 98.6424C154.777 98.6424 151.431 95.2712 151.431 91.1428C151.431 86.99 154.802 83.6433 158.93 83.6433C163.059 83.6433 166.43 87.0144 166.43 91.1428Z" fill="white"/>
</svg>
