<?xml version="1.0" encoding="UTF-8"?> <svg xmlns="http://www.w3.org/2000/svg" viewBox="0 0 623.7 216.7"><defs><style>.cls-1{fill:#9c0d15;}.cls-2{fill:#e7241f;}.cls-3{fill:#b51e25;}.cls-4{fill:#d2241d;}</style></defs><g id="Layer_2" data-name="Layer 2"><g id="layer"><path d="M300.7,106.6c0-13.3-8.2-23.6-23.6-23.6H263.2v47.4H277c15,0,23.7-10.8,23.7-23.8m-53.6,38V68.8H277c23.8,0,40.2,15.1,40.2,37.9,0,23-16.5,38-40.1,38h-30Z"></path><path d="M326.2,89.7h14.4v54.9H326.2Zm-1.4-14.6a8.55,8.55,0,0,1,17.1,0,8.55,8.55,0,1,1-17.1,0"></path><rect x="352.8" y="68.8" width="14.4" height="75.8"></rect><path d="M379.4,89.7h14.4v54.9H379.4ZM378,75.1a8.55,8.55,0,0,1,17.1,0,8.55,8.55,0,1,1-17.1,0"></path><path d="M443.7,125.1V107.3c-2.5-3.5-7.7-6.1-12.4-6.1-8.3,0-14,5.7-14,15.1s5.7,15.1,14,15.1a16.12,16.12,0,0,0,12.4-6.3m-38.9,33.6,6.5-10.3c4.4,4.8,10.3,6.7,17.2,6.7s15.2-3,15.2-14.1v-5.3a21.12,21.12,0,0,1-17.1,8.5c-13.6,0-24.2-9.5-24.2-27.8,0-18,10.3-28,24.2-28a21.15,21.15,0,0,1,17.1,8.4v-7h14.4v51.3c0,20.8-16.1,25.9-29.7,25.9-9.3-.1-16.6-2.3-23.6-8.3"></path><path d="M494.5,100.1c-9,0-12.8,6.3-13.4,11.7h27.1c-.5-5.2-4.2-11.7-13.7-11.7m-28.5,17c0-15.9,11.8-28.8,28.4-28.8s27.5,12.3,27.5,30.1v3.4H481.1c1,6.7,6.5,12.3,15.8,12.3,4.7,0,11-1.9,14.5-5.3l6.5,9.6c-5.5,5-14.1,7.6-22.6,7.6-16.6-.1-29.3-11.3-29.3-28.9"></path><path d="M566.6,144.6V111.4c0-7.6-4-10.2-10.1-10.2a16,16,0,0,0-12.5,6.4v37.1H529.6V89.8H544v7a25.52,25.52,0,0,1,19.2-8.4c12.2,0,18,6.8,18,17.5v38.8H566.6Z"></path><path d="M596.1,130.8V102.3H587V89.7h9.1v-15h14.4v15h11.2v12.6H610.6V127c0,3.5,1.8,6.1,5,6.1a7.24,7.24,0,0,0,5-1.7l3.1,11c-2.2,1.9-6,3.5-12.1,3.5-10.1,0-15.5-5.2-15.5-15.1"></path><path class="cls-1" d="M0,216.7H80.1a239.45,239.45,0,0,0,25-1.2,120.67,120.67,0,0,0,46.6-16c11.5-6.6,25.1-18.5,35-36.3l-50-89.7Z"></path><path class="cls-2" d="M155.7,19.6C134.3,5.2,107.2,0,86.2,0H0L136.7,73.5,176,37.6a100.18,100.18,0,0,0-20.3-18"></path><path class="cls-3" d="M186.8,163.3c8-14.4,13.6-32.6,13.6-54.9,0-31.1-10.3-54.2-24.5-70.8L136.7,73.5Z"></path><polygon class="cls-4" points="0.1 0 0 216.7 136.7 73.5 0.1 0"></polygon></g></g></svg> 