<?xml version="1.0" encoding="UTF-8"?> <svg xmlns="http://www.w3.org/2000/svg" xmlns:xlink="http://www.w3.org/1999/xlink" data-name="Outlined Gradient" viewBox="0 0 283.46 283.46"><defs><linearGradient id="a" x1="87.14" x2="252.94" y1="64.8" y2="202.29" gradientUnits="userSpaceOnUse"><stop offset="0" stop-color="#47abe0"></stop><stop offset="1" stop-color="#101331"></stop></linearGradient><linearGradient id="b" x1="88.25" x2="254.05" y1="63.46" y2="200.95" xlink:href="#a"></linearGradient><linearGradient id="c" x1="39.38" x2="205.18" y1="122.39" y2="259.88" xlink:href="#a"></linearGradient><linearGradient id="d" x1="30.91" x2="252.55" y1="53.37" y2="230.1" xlink:href="#a"></linearGradient></defs><path fill="url(#a)" d="M131.2 165.5c0-.2.11-1.11.33-2.53a82.77 82.77 0 0 1-11.73-19 83.69 83.69 0 0 1 17.42-2.72v1.23a79.81 79.81 0 0 1 5.6-11.34v-19.69h18.36a62.16 62.16 0 0 1 15.45-7.26 89.85 89.85 0 0 0-5.35-27.09 89 89 0 0 0 10.52-4.51 55.07 55.07 0 0 1 12.86 28.08c2-.18 3.82-.28 5.6-.34a60.83 60.83 0 1 0-69.39 68.46zm46.52-97.15a82.24 82.24 0 0 1-8.54 3.55 86.5 86.5 0 0 0-7.94-14.23 55.25 55.25 0 0 1 16.48 10.68zm-34.9-14.86a55.19 55.19 0 0 1 9.18 1.25 80.7 80.7 0 0 1 11.83 18.84 83.54 83.54 0 0 1-21 3zm0 28.7a89.46 89.46 0 0 0 23.12-3.39 84.43 84.43 0 0 1 5.18 27.05h-28.3zm-5.6 53.43a90 90 0 0 0-19.54 3.1 88.51 88.51 0 0 1-5.34-27.27h24.88zm0-29.77h-24.91a87.41 87.41 0 0 1 4.94-27 89.23 89.23 0 0 0 20 3.24zm0-52.36v23a83.21 83.21 0 0 1-17.91-2.87 80.15 80.15 0 0 1 11.94-19.51 55.88 55.88 0 0 1 5.97-.62zm-14.65 2.77A86.91 86.91 0 0 0 113.89 72a81.65 81.65 0 0 1-10.57-4.54 55.34 55.34 0 0 1 19.25-11.2zM99.14 71.54a88.44 88.44 0 0 0 12.7 5.62 92.44 92.44 0 0 0-5.23 28.69H84.86a55 55 0 0 1 14.28-34.31zm-14.28 39.91h21.78a93.94 93.94 0 0 0 5.62 29A88.18 88.18 0 0 0 99.39 146a55 55 0 0 1-14.53-34.55zm29.51 34.14a89.68 89.68 0 0 0 8.79 15.65 55.13 55.13 0 0 1-19.54-11.1 82.83 82.83 0 0 1 10.75-4.55z"></path><path fill="url(#b)" d="M216.93 106.41c-1.34-.22-33-5.42-55 10.87S136.5 164.7 136.37 166l-.25 2.6 2.57.44a86.44 86.44 0 0 0 13.44 1c11.52 0 28.3-2 41.59-11.83 22.09-16.33 25.39-47.41 25.52-48.73l.26-2.6zm-26.54 47.26c-14.2 10.49-33.49 11.11-43.71 10.54l16-11.82 16.53 2.76a3.73 3.73 0 0 0 .47 0 2.8 2.8 0 0 0 .45-5.57l-11.18-1.86 11.2-8.27 16.53 2.75a3.73 3.73 0 0 0 .47 0 2.8 2.8 0 0 0 .45-5.57l-11.18-1.86 13-9.58a2.8 2.8 0 1 0-3.33-4.5l-12.89 9.52 1.44-10a2.8 2.8 0 0 0-5.55-.8L176.83 135l-11.14 8.23 1.44-10a2.8 2.8 0 1 0-5.55-.79l-2.22 15.44-16.23 12c2.15-9.68 7.89-27.59 22.09-38.08 16.59-12.26 40.15-11 48.06-10.2-1.28 7.67-6.39 29.88-22.89 42.07z"></path><path fill="url(#c)" d="M222.63 193.53c-3.27-5.79-7.06-8.24-11.07-8.83a13.6 13.6 0 0 0-4.72-5.54c-4.19-2.83-9.74-3.4-15.62-1.59-12.95 4-20.32 6.21-22.58 6.89a28.58 28.58 0 0 0-17.1-3c-6.69.84-12.08-1.42-17.78-3.81-2-.83-4-1.7-6.17-2.42-14.67-5-25.44-2.22-34.09 0-4.69 1.23-8.74 2.29-12.65 2H55v6.11h22.4v37.79H66v6.11h14.08l64.34 6.09h.29c.87-.09 21.49-2.23 40.8-9.45 10.53-4 35.42-25.64 36.47-26.56l1.88-1.64zM193 183.42c4.08-1.26 7.78-1 10.4.81a7.32 7.32 0 0 1 1.2 1 39 39 0 0 0-5 1.68c-1.44.58-13.5 4.48-23 7.53a14.15 14.15 0 0 0-2.45-5.26zm-9.64 34.75c-17.35 6.49-36.43 8.78-39 9.07l-60.88-5.77v-38.05a57.28 57.28 0 0 0 11.54-2.19c8.26-2.17 17.63-4.61 30.56-.18 1.93.66 3.8 1.45 5.79 2.28 6.19 2.59 12.59 5.28 20.9 4.24 6-.76 12.13.72 15.56 3.76a8.46 8.46 0 0 1 2.84 4.73l-42.17 9 1.28 6 44.85-9.58.29-.07c2.51-.81 24.6-7.86 27-8.81 6.46-2.6 10.47-3 14.07 1.87-8.19 6.98-25.4 21-32.62 23.7z"></path><path fill="url(#d)" d="M141.73 5.6A136.13 136.13 0 0 1 238 238 136.13 136.13 0 0 1 45.47 45.47 135.25 135.25 0 0 1 141.73 5.6m0-5.6a141.73 141.73 0 1 0 141.73 141.73A141.74 141.74 0 0 0 141.73 0z"></path></svg> 