<?xml version="1.0" encoding="UTF-8"?> <svg xmlns="http://www.w3.org/2000/svg" xmlns:xlink="http://www.w3.org/1999/xlink" data-name="Outlined Gradient" viewBox="0 0 283.46 283.46"><defs><linearGradient id="a" x1="30.91" x2="252.55" y1="53.37" y2="230.1" gradientUnits="userSpaceOnUse"><stop offset="0" stop-color="#47abe0"></stop><stop offset="1" stop-color="#101331"></stop></linearGradient><linearGradient id="b" x1="30.57" x2="203.88" y1="589.87" y2="739.73" gradientTransform="translate(0 -506)" xlink:href="#a"></linearGradient><linearGradient id="c" x1="74.71" x2="248.01" y1="538.84" y2="688.7" gradientTransform="translate(0 -506)" xlink:href="#a"></linearGradient><linearGradient id="d" x1="49.51" x2="222.81" y1="567.98" y2="717.84" gradientTransform="translate(0 -506)" xlink:href="#a"></linearGradient><linearGradient id="e" x1="49.45" x2="222.76" y1="568.04" y2="717.9" gradientTransform="translate(0 -506)" xlink:href="#a"></linearGradient></defs><path fill="url(#a)" d="M141.73 5.6A136.13 136.13 0 0 1 238 238 136.13 136.13 0 0 1 45.47 45.47 135.25 135.25 0 0 1 141.73 5.6m0-5.6a141.73 141.73 0 1 0 141.73 141.73A141.74 141.74 0 0 0 141.73 0z"></path><g data-name="Primary Icons"><path fill="url(#b)" d="M81 202.5A85.89 85.89 0 0 1 93.9 70.4l-3.1 7.2 5.1 2.2 7-16.2-16.2-7-2.2 5.1 7.5 3.2a91.51 91.51 0 0 0-27 126.7 95.51 95.51 0 0 0 12 14.9 91.4 91.4 0 0 0 64.5 26.9 89.67 89.67 0 0 0 21.2-2.5l-1.3-5.5A85.53 85.53 0 0 1 81 202.5z"></path><path fill="url(#c)" d="M208.1 204.7a91.46 91.46 0 0 0-67.7-154.5l.1 5.6a85.88 85.88 0 0 1 63.9 144.7l-.2-7.8-5.6.1.4 17.7 17.7-.4-.1-5.6zm-3.6-.2l.3.3h-.3z"></path><path fill="url(#d)" d="M141.7 89a52.7 52.7 0 1 0 52.7 52.7A52.71 52.71 0 0 0 141.7 89zm0 99.8a47.1 47.1 0 1 1 47.1-47.1 47.12 47.12 0 0 1-47.1 47.1z"></path><path fill="url(#e)" d="M142.7 137.6c-6.2-1.7-7.4-3.4-7.6-4.7a2.85 2.85 0 0 1 .6-2.4c1.2-1.5 3.3-2.2 5.9-2a9.19 9.19 0 0 1 7.3 4.5l4.8-2.9a15.14 15.14 0 0 0-9.4-6.8v-8.6h-5.6v8.4a11.27 11.27 0 0 0-7.3 3.9 8.37 8.37 0 0 0-1.8 7.3c1.2 5.4 6.8 7.6 11.6 8.9 3.6 1 6.1 2.6 7.2 4.7a4.7 4.7 0 0 1 .4 4c-.9 3-4.1 3.7-5.5 3.8a10.81 10.81 0 0 1-10.6-5.8l-5 2.6a16.65 16.65 0 0 0 10.8 8.4v7.5h5.6V161c4.9-.6 8.6-3.4 9.9-7.7a10.74 10.74 0 0 0-.9-8.4c-1-2.3-3.9-5.5-10.4-7.3z"></path></g></svg> 