<?xml version="1.0" encoding="UTF-8"?> <svg xmlns="http://www.w3.org/2000/svg" xmlns:xlink="http://www.w3.org/1999/xlink" data-name="Outlined Gradient" viewBox="0 0 283.46 283.46"><defs><linearGradient id="a" x1="30.91" x2="252.55" y1="53.37" y2="230.1" gradientUnits="userSpaceOnUse"><stop offset="0" stop-color="#47abe0"></stop><stop offset="1" stop-color="#101331"></stop></linearGradient><linearGradient id="b" x1="66.32" x2="212.83" y1="593.87" y2="726.98" gradientTransform="translate(0 -506)" xlink:href="#a"></linearGradient></defs><path fill="url(#a)" d="M141.73 5.6A136.13 136.13 0 0 1 238 238 136.13 136.13 0 0 1 45.47 45.47 135.25 135.25 0 0 1 141.73 5.6m0-5.6a141.73 141.73 0 1 0 141.73 141.73A141.74 141.74 0 0 0 141.73 0z"></path><path fill="url(#b)" d="M200.8 137v-26.6H174a39.34 39.34 0 1 0-63.9-.1H82V137a39.55 39.55 0 1 0 5.6-.3V116h27.1v-.3a39.26 39.26 0 0 0 54.4.3h26.1v20.7a39.41 39.41 0 1 0 5.6.3zM65.7 202a21.64 21.64 0 0 1 42.8 0 33.5 33.5 0 0 1-42.8 0zm21.4-27.2a7.8 7.8 0 1 1 7.8-7.9 7.81 7.81 0 0 1-7.8 7.9zm33.7 1.1a33.64 33.64 0 0 1-7.6 21.3 27.46 27.46 0 0 0-19.6-18.6 13.37 13.37 0 1 0-18.2-5.1 13.86 13.86 0 0 0 5.1 5.1 27.63 27.63 0 0 0-19.6 18.6 33.69 33.69 0 1 1 59.9-21.3zM142 53.8a33.69 33.69 0 0 1 26.1 55 27.64 27.64 0 0 0-19.6-18.6 13.37 13.37 0 1 0-18.2-5.1 13.86 13.86 0 0 0 5.1 5.1 27.63 27.63 0 0 0-19.6 18.6 33.66 33.66 0 0 1 4.7-47.4 34.6 34.6 0 0 1 21.5-7.6zm0 32.6a7.75 7.75 0 0 1 .1-15.5 7.81 7.81 0 0 1 7.8 7.8 7.94 7.94 0 0 1-7.9 7.7zm-21.4 27.1a21.64 21.64 0 0 1 42.8 0 33.5 33.5 0 0 1-42.8 0zm54 88.4a21.64 21.64 0 0 1 42.8 0 33.5 33.5 0 0 1-42.8 0zm21.4-27.1a7.8 7.8 0 1 1 7.8-7.8 7.81 7.81 0 0 1-7.8 7.8zm26.1 22.4a27.64 27.64 0 0 0-19.6-18.6 13.37 13.37 0 1 0-18.2-5.1 13.86 13.86 0 0 0 5.1 5.1 27.63 27.63 0 0 0-19.6 18.6 33.69 33.69 0 1 1 52.3 0z" data-name="Primary Icons"></path></svg> 