<?xml version="1.0" encoding="UTF-8"?> <svg xmlns="http://www.w3.org/2000/svg" width="107" height="108" viewBox="0 0 107 108" fill="none"><g clip-path="url(#clip0_173_84)"><path d="M53.451 53.6401C53.2616 53.8425 53.1584 54.1105 53.163 54.3877C53.1676 54.6648 53.2798 54.9292 53.4757 55.1252C53.6717 55.3212 53.9362 55.4333 54.2133 55.438C54.4904 55.4426 54.7585 55.3393 54.9609 55.15L74.703 35.4079H82.0261L91.1611 26.2729H82.2148V17.3267L73.0798 26.4616V34.0112L53.451 53.6401ZM80.0632 22.4226V28.349H85.9896L81.0824 33.2562H75.2315L75.156 33.1807V27.3676L80.0632 22.4226Z" fill="url(#paint0_linear_173_84)"></path><path d="M82.4412 38.3145C86.0658 44.8188 87.3935 52.3546 86.2099 59.7061C85.0263 67.0575 81.4006 73.7958 75.9176 78.8338C70.4347 83.8718 63.4143 86.9158 55.9892 87.4745C48.5641 88.0332 41.1673 86.0741 34.9922 81.9133L33.822 83.6497C40.3921 88.0758 48.2619 90.1591 56.1613 89.5636C64.0608 88.968 71.5292 85.7283 77.3615 80.3672C83.1937 75.0061 87.0495 67.8363 88.3067 60.0148C89.564 52.1933 88.1492 44.1763 84.2909 37.2576L82.4412 38.3145Z" fill="url(#paint1_linear_173_84)"></path><path d="M53.4887 21.3279C59.2926 21.3191 64.9959 22.8426 70.0223 25.7444L71.0792 23.9325C64.3227 20.0469 56.4688 18.5102 48.7461 19.5629C41.0234 20.6155 33.8673 24.198 28.3971 29.7501C22.927 35.3022 19.4513 42.5108 18.5136 50.2483C17.576 57.9859 19.2293 65.816 23.2149 72.514L25.0268 71.4193C22.036 66.3889 20.4302 60.6565 20.3726 54.8045C20.315 48.9524 21.8076 43.1895 24.6988 38.1012C27.5899 33.0129 31.7766 28.7807 36.8333 25.8346C41.8899 22.8886 47.6364 21.3337 53.4887 21.3279Z" fill="url(#paint2_linear_173_84)"></path><path d="M53.4886 79.4973V77.3834C48.3664 77.3791 43.3931 75.6603 39.3613 72.501C35.3295 69.3416 32.4713 64.9236 31.2423 59.9511C30.0133 54.9785 30.4842 49.7377 32.5799 45.0638C34.6756 40.39 38.2756 36.5522 42.806 34.1622L41.8245 32.2748C36.8737 34.8847 32.9392 39.077 30.6482 44.1832C28.3573 49.2894 27.8417 55.0156 29.1837 60.4489C30.5258 65.8822 33.6482 70.7098 38.0531 74.1621C42.4581 77.6144 47.892 79.4926 53.4886 79.4973Z" fill="url(#paint3_linear_173_84)"></path><path d="M78.8175 53.7533C78.7035 49.2209 77.3454 44.807 74.8917 40.9945L73.1176 42.1269C76.3839 47.2584 77.4792 53.4768 76.1626 59.4155C74.8461 65.3541 71.2254 70.5271 66.0965 73.7974C65.7568 74.0239 65.3793 74.2503 65.0396 74.4391L66.0965 76.2887C70.0646 74.043 73.3456 70.7584 75.5869 66.7878C77.8283 62.8173 78.9451 58.311 78.8175 53.7533Z" fill="url(#paint4_linear_173_84)"></path><path d="M65.4548 34.7285L66.5495 32.9166C62.4807 30.4971 57.8048 29.2921 53.0735 29.4438L53.149 31.5576C57.4685 31.4274 61.7361 32.527 65.4548 34.7285Z" fill="url(#paint5_linear_173_84)"></path><path d="M61.1892 67.9842C62.9636 66.9459 64.4949 65.5394 65.6799 63.8595C66.865 62.1795 67.6763 60.2652 68.0593 58.2453L65.9832 57.8678C65.5747 60.055 64.5755 62.0888 63.0938 63.7487C61.6121 65.4086 59.7045 66.6315 57.5775 67.2847C55.4505 67.938 53.1854 67.9967 51.0274 67.4547C48.8694 66.9126 46.9009 65.7903 45.3351 64.2094L43.8252 65.6816C46.0587 67.9295 48.9736 69.3745 52.1149 69.791C55.2562 70.2076 58.4471 69.5723 61.1892 67.9842Z" fill="url(#paint6_linear_173_84)"></path><path d="M59.1132 42.9575L60.1324 41.1079C57.2317 39.5497 53.8844 39.0332 50.6489 39.6446C47.4134 40.256 44.4854 41.9582 42.3532 44.4674C41.0914 45.951 40.1487 47.6786 39.5837 49.5424C39.0187 51.4063 38.8435 53.3665 39.0691 55.301L41.183 55.0745C40.9304 52.858 41.2901 50.6147 42.2231 48.5883C43.1562 46.5619 44.6268 44.83 46.4752 43.5809C48.3235 42.3318 50.4789 41.6133 52.7071 41.5033C54.9352 41.3934 57.1509 41.8964 59.1132 42.9575Z" fill="url(#paint7_linear_173_84)"></path><path d="M53.5 3.05797C63.6645 3.05624 73.6012 6.06905 82.0532 11.7153C90.5052 17.3616 97.0928 25.3876 100.983 34.7783C104.873 44.169 105.89 54.5023 103.907 64.4714C101.924 74.4405 97.0281 83.5974 89.8399 90.7839C80.2024 100.421 67.1313 105.836 53.5019 105.836C39.8725 105.836 26.8014 100.421 17.164 90.7839C7.52654 81.1465 2.11229 68.0754 2.11229 54.446C2.11229 40.8166 7.52654 27.7455 17.164 18.108C21.9248 13.3216 27.5875 9.52699 33.8246 6.94365C40.0617 4.36032 46.7491 3.03961 53.5 3.05797ZM53.5 0.944092C42.9187 0.944092 32.575 4.08181 23.777 9.96047C14.979 15.8391 8.12176 24.1947 4.07247 33.9705C0.0231809 43.7464 -1.0363 54.5034 1.02801 64.8814C3.09232 75.2594 8.1877 84.7922 15.6698 92.2743C23.1519 99.7564 32.6847 104.852 43.0627 106.916C53.4407 108.98 64.1977 107.921 73.9736 103.872C83.7494 99.8224 92.105 92.9651 97.9837 84.1671C103.862 75.3691 107 65.0254 107 54.4441C106.999 40.2553 101.362 26.648 91.3291 16.615C81.2962 6.582 67.6888 0.945093 53.5 0.944092Z" fill="url(#paint8_linear_173_84)"></path></g><defs><linearGradient id="paint0_linear_173_84" x1="49.8876" y1="18.293" x2="95.0113" y2="63.413" gradientUnits="userSpaceOnUse"><stop stop-color="#47ABE0"></stop><stop offset="1" stop-color="#101331"></stop></linearGradient><linearGradient id="paint1_linear_173_84" x1="29.3263" y1="30.7196" x2="78.1908" y2="79.588" gradientUnits="userSpaceOnUse"><stop stop-color="#47ABE0"></stop><stop offset="1" stop-color="#101331"></stop></linearGradient><linearGradient id="paint2_linear_173_84" x1="29.4207" y1="30.4969" x2="73.7933" y2="74.8657" gradientUnits="userSpaceOnUse"><stop stop-color="#47ABE0"></stop><stop offset="1" stop-color="#101331"></stop></linearGradient><linearGradient id="paint3_linear_173_84" x1="23.5432" y1="36.948" x2="70.8111" y2="84.2158" gradientUnits="userSpaceOnUse"><stop stop-color="#47ABE0"></stop><stop offset="1" stop-color="#101331"></stop></linearGradient><linearGradient id="paint4_linear_173_84" x1="39.5937" y1="27.7375" x2="84.2192" y2="72.363" gradientUnits="userSpaceOnUse"><stop stop-color="#47ABE0"></stop><stop offset="1" stop-color="#101331"></stop></linearGradient><linearGradient id="paint5_linear_173_84" x1="44.4443" y1="16.836" x2="95.1774" y2="67.5653" gradientUnits="userSpaceOnUse"><stop stop-color="#47ABE0"></stop><stop offset="1" stop-color="#101331"></stop></linearGradient><linearGradient id="paint6_linear_173_84" x1="24.2945" y1="30.3194" x2="76.9376" y2="82.9626" gradientUnits="userSpaceOnUse"><stop stop-color="#47ABE0"></stop><stop offset="1" stop-color="#101331"></stop></linearGradient><linearGradient id="paint7_linear_173_84" x1="29.4548" y1="28.0584" x2="83.1133" y2="81.7132" gradientUnits="userSpaceOnUse"><stop stop-color="#47ABE0"></stop><stop offset="1" stop-color="#101331"></stop></linearGradient><linearGradient id="paint8_linear_173_84" x1="11.6679" y1="21.0901" x2="95.3322" y2="87.8019" gradientUnits="userSpaceOnUse"><stop stop-color="#47ABE0"></stop><stop offset="1" stop-color="#101331"></stop></linearGradient><clipPath id="clip0_173_84"><rect width="107" height="107" fill="white" transform="translate(0 0.944092)"></rect></clipPath></defs></svg> 