<?xml version="1.0" encoding="UTF-8"?> <svg xmlns="http://www.w3.org/2000/svg" xmlns:xlink="http://www.w3.org/1999/xlink" id="Outlined_Gradient" data-name="Outlined Gradient" viewBox="0 0 283.46 283.46"><defs><style>.cls-1{fill:url(#New_Gradient_Swatch_3);}.cls-2{fill:url(#New_Gradient_Swatch_3-2);}.cls-3{fill:url(#New_Gradient_Swatch_3-3);}.cls-4{fill:url(#New_Gradient_Swatch_3-4);}</style><linearGradient id="New_Gradient_Swatch_3" x1="30.91" y1="53.37" x2="252.55" y2="230.1" gradientUnits="userSpaceOnUse"><stop offset="0" stop-color="#47abe0"></stop><stop offset="1" stop-color="#101331"></stop></linearGradient><linearGradient id="New_Gradient_Swatch_3-2" x1="49.72" y1="81.6" x2="181.16" y2="258.25" xlink:href="#New_Gradient_Swatch_3"></linearGradient><linearGradient id="New_Gradient_Swatch_3-3" x1="42.69" y1="86.83" x2="174.13" y2="263.48" xlink:href="#New_Gradient_Swatch_3"></linearGradient><linearGradient id="New_Gradient_Swatch_3-4" x1="86.98" y1="53.88" x2="218.42" y2="230.53" xlink:href="#New_Gradient_Swatch_3"></linearGradient></defs><path class="cls-1" d="M141.73,5.6A136.13,136.13,0,0,1,238,238,136.13,136.13,0,0,1,45.47,45.47,135.25,135.25,0,0,1,141.73,5.6m0-5.6A141.73,141.73,0,1,0,283.46,141.73,141.74,141.74,0,0,0,141.73,0Z"></path><rect class="cls-2" x="114.89" y="216.17" width="74.09" height="5.6"></rect><rect class="cls-3" x="114.89" y="230.86" width="74.09" height="5.6"></rect><path class="cls-4" d="M206.59,79.75A63.38,63.38,0,0,0,148.66,47l.16,5.6A57.79,57.79,0,0,1,201.71,82.5c11,19.48,10.37,42.23-1.67,60.87S186.1,181,185.72,197.26c-.08,3.34-.06,5.31-.05,7.4v.1l-25.59,0V144.64h10.2v0a14.62,14.62,0,0,0,13.47-15.28,14.72,14.72,0,0,0-13.94-13.94A14.63,14.63,0,0,0,154.48,130v9h-9.93V65c0-6.77-3.31-12.93-8.63-16.08a17.92,17.92,0,0,0-8-2.48A18.69,18.69,0,0,0,110.3,56.67a21.21,21.21,0,0,0-20.12,4.68,23.62,23.62,0,0,0-7.87,16.5,24.55,24.55,0,0,0,.13,4.3A19.91,19.91,0,0,0,69.23,99.81c-.21,3.79.44,9,2.74,12.83a22.16,22.16,0,0,0-6.48,14.61,23.55,23.55,0,0,0,8.4,19,20.72,20.72,0,0,0-.67,2.16c-2.3,9.48,2.34,19.13,10.52,22.88a22.64,22.64,0,0,0-.64,4.21c-.68,12.09,8.11,22.52,19.6,23.25.43,0,.86,0,1.29,0a19.64,19.64,0,0,0,4.13-.44,19.09,19.09,0,0,0,16.55,12.53c.39,0,.77,0,1.15,0a18.22,18.22,0,0,0,12.12-4.67,19.77,19.77,0,0,0,6.61-13.83V144.64h9.93v60.09h-5.74v5.6l42.55,0v-2.8c0-1.08,0-2,0-2.94,0-2.05,0-4,0-7.23.37-15.49,2.24-33.66,13.43-51C217.93,126,218.62,101.07,206.59,79.75ZM160.08,130a9,9,0,1,1,9,9h-9ZM87.9,78.17a18.08,18.08,0,0,1,6-12.63,15.86,15.86,0,0,1,11.6-4.06,16.72,16.72,0,0,1,13.78,9.57l5-2.46a23,23,0,0,0-8.85-9.69A12.8,12.8,0,0,1,127.53,52a12.26,12.26,0,0,1,5.54,1.71A12.9,12.9,0,0,1,139,65V85.13A20.75,20.75,0,0,0,130.73,83a21.11,21.11,0,0,0-13.13,4,11.12,11.12,0,0,0-18.72,8.15c0,.29,0,.57,0,.85C92.13,93.41,87.44,86.25,87.9,78.17Zm27.67,17A5.55,5.55,0,1,1,110,89.6,5.55,5.55,0,0,1,115.57,95.15ZM78.66,149.77a14,14,0,0,1,6.5-8.85l-2.79-4.85a19.12,19.12,0,0,0-5.77,5.16,17.81,17.81,0,0,1-5.52-13.67,16.61,16.61,0,0,1,5.51-11.62,14.65,14.65,0,0,1,10.66-3.74,13.66,13.66,0,0,1,9.51,5.07l4.27-3.62a19.27,19.27,0,0,0-13.42-7,20,20,0,0,0-11.14,2.59,19.16,19.16,0,0,1-1.64-9.07,14.52,14.52,0,0,1,8.92-12.5,22.55,22.55,0,0,0,17.86,14.81,11.14,11.14,0,0,0,19-10.72,15.53,15.53,0,0,1,9.87-3.08,15.33,15.33,0,0,1,8.46,3V139h-8.75a9,9,0,0,1-7.12-3.48,11.21,11.21,0,1,0-4,4,14.51,14.51,0,0,0,9.93,5l9.9,0v22.49a15.33,15.33,0,0,1-8.46,3,15.59,15.59,0,0,1-9.87-3.08,11.13,11.13,0,0,0-17.5-12.17A20.24,20.24,0,0,0,90.5,160a21.72,21.72,0,0,0-4.75,6.06C80.14,163.34,77,156.51,78.66,149.77Zm34.78-14.22A5.55,5.55,0,1,1,119,130,5.55,5.55,0,0,1,113.44,135.55ZM110,158.08a5.55,5.55,0,1,1-5.54,5.55A5.56,5.56,0,0,1,110,158.08Zm24.2,44a12.58,12.58,0,0,1-9.19,3.23,13.46,13.46,0,0,1-11.65-8.84,21.26,21.26,0,0,0,7.56-6.81l-4.63-3.16a14.91,14.91,0,0,1-13.25,6.68c-8.43-.53-14.88-8.32-14.37-17.34a16.66,16.66,0,0,1,5.52-11.63,15,15,0,0,1,4.91-2.92,11.78,11.78,0,0,0-.24,2.32,11.12,11.12,0,0,0,18.72,8.15,21.27,21.27,0,0,0,12.25,4l.88,0a20.75,20.75,0,0,0,8.23-2.1v18.58A14.22,14.22,0,0,1,134.22,202.1Z"></path></svg> 