<?xml version="1.0" encoding="UTF-8"?> <svg xmlns="http://www.w3.org/2000/svg" width="108" height="108" viewBox="0 0 108 108" fill="none"><g clip-path="url(#clip0_173_124)"><path d="M54.3272 3.05797C64.4917 3.05624 74.4283 6.06905 82.8803 11.7153C91.3323 17.3616 97.92 25.3876 101.81 34.7783C105.7 44.169 106.718 54.5023 104.734 64.4714C102.751 74.4405 97.8552 83.5974 90.667 90.7839C81.0296 100.421 67.9584 105.836 54.3291 105.836C40.6997 105.836 27.6285 100.421 17.9911 90.7839C8.35369 81.1465 2.93944 68.0754 2.93944 54.446C2.93944 40.8166 8.35369 27.7455 17.9911 18.108C22.7519 13.3216 28.4147 9.52699 34.6518 6.94365C40.8888 4.36032 47.5763 3.03961 54.3272 3.05797ZM54.3272 0.944092C43.7459 0.944092 33.4022 4.08181 24.6042 9.96047C15.8061 15.8391 8.94891 24.1947 4.89962 33.9705C0.850329 43.7464 -0.209149 54.5034 1.85516 64.8814C3.91947 75.2594 9.01485 84.7922 16.497 92.2743C23.9791 99.7564 33.5119 104.852 43.8898 106.916C54.2678 108.98 65.0249 107.921 74.8007 103.872C84.5766 99.8224 92.9321 92.9651 98.8108 84.1671C104.689 75.3691 107.827 65.0254 107.827 54.4441C107.826 40.2553 102.189 26.648 92.1563 16.615C82.1233 6.582 68.5159 0.945093 54.3272 0.944092Z" fill="url(#paint0_linear_173_124)"></path><path d="M77.6441 28.8397V30.9536H85.7977L63.2622 53.9043L54.4292 45.2223L25.8541 71.5703V35.6343H75.0773V33.5205H23.7402V75.1563H84.6652V42.5044H82.5514V73.0424H27.364L54.3915 48.1666L63.2622 56.8864L87.4208 32.3125V40.1263H89.5347V28.8397H77.6441Z" fill="url(#paint1_linear_173_124)"></path><path d="M87.4206 77.9496H21.2486V30.9913H75.1903V28.8774H19.1348V80.0635H89.5345V42.4289H87.4206V77.9496Z" fill="url(#paint2_linear_173_124)"></path></g><defs><linearGradient id="paint0_linear_173_124" x1="12.495" y1="21.0901" x2="96.1593" y2="87.8019" gradientUnits="userSpaceOnUse"><stop stop-color="#47ABE0"></stop><stop offset="1" stop-color="#101331"></stop></linearGradient><linearGradient id="paint1_linear_173_124" x1="26.6393" y1="21.3015" x2="80.9961" y2="76.9191" gradientUnits="userSpaceOnUse"><stop stop-color="#47ABE0"></stop><stop offset="1" stop-color="#101331"></stop></linearGradient><linearGradient id="paint2_linear_173_124" x1="20.8372" y1="26.9674" x2="75.1941" y2="82.5888" gradientUnits="userSpaceOnUse"><stop stop-color="#47ABE0"></stop><stop offset="1" stop-color="#101331"></stop></linearGradient><clipPath id="clip0_173_124"><rect width="107" height="107" fill="white" transform="translate(0.827148 0.944092)"></rect></clipPath></defs></svg> 