<?xml version="1.0" encoding="UTF-8"?> <svg xmlns="http://www.w3.org/2000/svg" width="108" height="108" viewBox="0 0 108 108" fill="none"><g clip-path="url(#clip0_173_107)"><path d="M54.3272 2.97106C64.4917 2.96933 74.4283 5.98214 82.8803 11.6284C91.3323 17.2747 97.92 25.3007 101.81 34.6914C105.7 44.082 106.718 54.4154 104.734 64.3845C102.751 74.3536 97.8552 83.5105 90.667 90.697C81.0296 100.334 67.9584 105.749 54.3291 105.749C40.6997 105.749 27.6285 100.334 17.9911 90.697C8.35369 81.0596 2.93944 67.9884 2.93944 54.3591C2.93944 40.7297 8.35369 27.6585 17.9911 18.0211C22.7519 13.2347 28.4147 9.44007 34.6518 6.85674C40.8888 4.2734 47.5763 2.9527 54.3272 2.97106ZM54.3272 0.857178C43.7459 0.857178 33.4022 3.9949 24.6042 9.87355C15.8061 15.7522 8.94891 24.1078 4.89962 33.8836C0.850329 43.6595 -0.209149 54.4165 1.85516 64.7945C3.91947 75.1725 9.01485 84.7053 16.497 92.1874C23.9791 99.6695 33.5119 104.765 43.8898 106.829C54.2678 108.894 65.0249 107.834 74.8007 103.785C84.5766 99.7354 92.9321 92.8782 98.8108 84.0802C104.689 75.2822 107.827 64.9385 107.827 54.3572C107.826 40.1684 102.189 26.561 92.1563 16.5281C82.1233 6.49509 68.5159 0.858179 54.3272 0.857178Z" fill="url(#paint0_linear_173_107)"></path><path d="M61.79 44.8334H59.7139V46.985H61.79V44.8334Z" fill="url(#paint1_linear_173_107)"></path><path d="M67.1123 44.8334H65.0361V46.985H67.1123V44.8334Z" fill="url(#paint2_linear_173_107)"></path><path d="M61.79 50.1559H59.7139V52.3075H61.79V50.1559Z" fill="url(#paint3_linear_173_107)"></path><path d="M67.1123 50.1559H65.0361V52.3075H67.1123V50.1559Z" fill="url(#paint4_linear_173_107)"></path><path d="M61.79 55.516H59.7139V57.6676H61.79V55.516Z" fill="url(#paint5_linear_173_107)"></path><path d="M67.1123 55.516H65.0361V57.6676H67.1123V55.516Z" fill="url(#paint6_linear_173_107)"></path><path d="M37.1782 57.2146V55.1008H26.0803C25.8714 54.4135 25.4634 53.8036 24.9078 53.3483C24.3522 52.893 23.6741 52.6126 22.9592 52.5427C22.2443 52.4729 21.5247 52.6166 20.8915 52.9557C20.2583 53.2949 19.7399 53.8142 19.4018 54.448C19.0638 55.0818 18.9213 55.8016 18.9925 56.5164C19.0636 57.2312 19.3451 57.9088 19.8014 58.4636C20.2577 59.0184 20.8683 59.4254 21.5559 59.6331C22.2436 59.8408 22.9773 59.8399 23.6645 59.6305C24.2386 59.4649 24.7613 59.1565 25.1838 58.734C25.6063 58.3115 25.9148 57.7887 26.0803 57.2146H37.1782ZM22.6075 57.6676C22.3089 57.6676 22.017 57.5791 21.7687 57.4131C21.5204 57.2472 21.3268 57.0114 21.2126 56.7355C21.0983 56.4596 21.0684 56.156 21.1266 55.8631C21.1849 55.5702 21.3287 55.3012 21.5399 55.09C21.751 54.8789 22.0201 54.7351 22.313 54.6768C22.6059 54.6185 22.9094 54.6484 23.1853 54.7627C23.4612 54.877 23.6971 55.0705 23.863 55.3188C24.0289 55.5671 24.1174 55.8591 24.1174 56.1577C24.1174 56.5582 23.9584 56.9422 23.6752 57.2254C23.392 57.5085 23.008 57.6676 22.6075 57.6676Z" fill="url(#paint7_linear_173_107)"></path><path d="M86.0618 52.534C85.2851 52.5361 84.5293 52.7863 83.9046 53.248C83.2799 53.7097 82.819 54.3589 82.589 55.1008H72.5104V45.7394H78.097C78.3059 46.4266 78.714 47.0365 79.2696 47.4918C79.8251 47.9472 80.5033 48.2275 81.2182 48.2974C81.9331 48.3673 82.6527 48.2235 83.2859 47.8844C83.9191 47.5452 84.4375 47.0259 84.7755 46.3921C85.1136 45.7583 85.256 45.0385 85.1849 44.3237C85.1138 43.6089 84.8323 42.9313 84.376 42.3765C83.9197 41.8217 83.3091 41.4147 82.6214 41.207C81.9338 40.9993 81.2 41.0002 80.5129 41.2096C79.9388 41.3752 79.416 41.6836 78.9935 42.1061C78.5711 42.5286 78.2626 43.0514 78.097 43.6255H72.5104V39.3222H56.392V19.0516H37.1784V43.6255H30.5725C30.3636 42.9382 29.9556 42.3283 29.4 41.873C28.8444 41.4177 28.1663 41.1373 27.4514 41.0675C26.7365 40.9976 26.0169 41.1413 25.3837 41.4804C24.7505 41.8196 24.232 42.3389 23.894 42.9727C23.556 43.6065 23.4135 44.3263 23.4846 45.0411C23.5558 45.7559 23.8373 46.4336 24.2936 46.9883C24.7499 47.5431 25.3605 47.9501 26.0481 48.1578C26.7357 48.3655 27.4695 48.3646 28.1567 48.1552C28.7308 47.9897 29.2535 47.6812 29.676 47.2587C30.0985 46.8362 30.407 46.3135 30.5725 45.7394H37.1784V61.8954V70.5397L29.9686 70.5019V77.221C29.117 77.4749 28.3853 78.0268 27.9072 78.7758C27.4292 79.5248 27.2367 80.4209 27.365 81.3002C27.4932 82.1795 27.9337 82.9832 28.6059 83.5644C29.278 84.1456 30.1369 84.4654 31.0255 84.4654C31.9141 84.4654 32.773 84.1456 33.4451 83.5644C34.1173 82.9832 34.5577 82.1795 34.686 81.3002C34.8143 80.4209 34.6218 79.5248 34.1437 78.7758C33.6657 78.0268 32.934 77.4749 32.0824 77.221V72.6536L39.2923 72.6913V63.2543H46.9928V70.1999C46.3056 70.4089 45.6957 70.8169 45.2403 71.3725C44.785 71.928 44.5047 72.6062 44.4348 73.3211C44.3649 74.036 44.5086 74.7556 44.8478 75.3888C45.1869 76.022 45.7062 76.5404 46.3401 76.8784C46.9739 77.2165 47.6937 77.3589 48.4085 77.2878C49.1233 77.2167 49.8009 76.9352 50.3557 76.4789C50.9105 76.0226 51.3174 75.412 51.5251 74.7243C51.7328 74.0367 51.732 73.3029 51.5226 72.6158C51.357 72.0417 51.0486 71.519 50.6261 71.0965C50.2036 70.674 49.6808 70.3655 49.1067 70.1999V63.2166H56.392V63.1789H59.7138V82.468C59.0266 82.6769 58.4167 83.0849 57.9614 83.6405C57.506 84.1961 57.2257 84.8742 57.1558 85.5891C57.086 86.304 57.2297 87.0236 57.5688 87.6568C57.9079 88.29 58.4273 88.8085 59.0611 89.1465C59.6949 89.4845 60.4147 89.627 61.1295 89.5559C61.8443 89.4847 62.5219 89.2032 63.0767 88.7469C63.6315 88.2906 64.0385 87.68 64.2462 86.9924C64.4539 86.3048 64.453 85.571 64.2436 84.8839C64.078 84.3097 63.7696 83.787 63.3471 83.3645C62.9246 82.942 62.4018 82.6335 61.8277 82.468V63.1789H70.3965V72.6536L77.6063 72.6158V77.1833C76.9192 77.3848 76.3073 77.7855 75.848 78.3348C75.3886 78.8841 75.1025 79.5573 75.0258 80.2692C74.9491 80.9811 75.0852 81.6998 75.417 82.3343C75.7488 82.9689 76.2613 83.4908 76.8897 83.834C77.5181 84.1773 78.2342 84.3264 78.9474 84.2627C79.6605 84.1989 80.3388 83.9251 80.8964 83.4758C81.4539 83.0265 81.8657 82.422 82.0796 81.7387C82.2936 81.0553 82.3001 80.3239 82.0983 79.6369C81.9298 79.0661 81.6254 78.5447 81.2113 78.1174C80.7971 77.6901 80.2854 77.3695 79.7202 77.1833V70.4642L72.5104 70.5019V63.1411V57.1769H82.589C82.7179 57.6444 82.9392 58.0814 83.2397 58.462C83.5402 58.8426 83.9139 59.1591 84.3387 59.393C84.7636 59.6268 85.2309 59.7732 85.7133 59.8234C86.1956 59.8737 86.6831 59.8269 87.147 59.6857C87.611 59.5445 88.0419 59.3118 88.4144 59.0013C88.787 58.6909 89.0936 58.309 89.3161 57.8781C89.5387 57.4472 89.6726 56.9762 89.7102 56.4927C89.7477 56.0092 89.688 55.5231 89.5346 55.0631C89.2976 54.3285 88.8337 53.6879 88.2097 53.2335C87.5857 52.7791 86.8337 52.5342 86.0618 52.534ZM81.5698 43.1725C81.8685 43.1725 82.1604 43.2611 82.4087 43.427C82.657 43.5929 82.8505 43.8287 82.9648 44.1046C83.0791 44.3805 83.109 44.6841 83.0507 44.977C82.9925 45.2699 82.8487 45.5389 82.6375 45.7501C82.4263 45.9612 82.1573 46.1051 81.8644 46.1633C81.5715 46.2216 81.2679 46.1917 80.992 46.0774C80.7161 45.9631 80.4803 45.7696 80.3144 45.5213C80.1485 45.273 80.0599 44.981 80.0599 44.6824C80.0599 44.4841 80.099 44.2878 80.1749 44.1046C80.2507 43.9214 80.362 43.755 80.5022 43.6147C80.6424 43.4745 80.8088 43.3633 80.992 43.2874C81.1752 43.2116 81.3716 43.1725 81.5698 43.1725ZM27.062 46.2301C26.7633 46.2301 26.4714 46.1415 26.2231 45.9756C25.9748 45.8097 25.7813 45.5739 25.667 45.298C25.5527 45.0221 25.5228 44.7185 25.5811 44.4256C25.6393 44.1327 25.7831 43.8637 25.9943 43.6525C26.2055 43.4413 26.4745 43.2975 26.7674 43.2393C27.0603 43.181 27.3639 43.2109 27.6398 43.3252C27.9157 43.4395 28.1515 43.633 28.3174 43.8813C28.4833 44.1296 28.5719 44.4215 28.5719 44.7202C28.5719 45.1206 28.4128 45.5047 28.1296 45.7878C27.8465 46.071 27.4624 46.2301 27.062 46.2301ZM32.6109 80.6938C32.6109 80.9925 32.5223 81.2844 32.3564 81.5327C32.1905 81.781 31.9547 81.9745 31.6788 82.0888C31.4029 82.2031 31.0993 82.233 30.8064 82.1747C30.5135 82.1165 30.2445 81.9727 30.0333 81.7615C29.8222 81.5504 29.6783 81.2813 29.6201 80.9884C29.5618 80.6955 29.5917 80.3919 29.706 80.116C29.8203 79.8401 30.0138 79.6043 30.2621 79.4384C30.5104 79.2725 30.8024 79.1839 31.101 79.1839C31.5014 79.1839 31.8855 79.343 32.1687 79.6262C32.4518 79.9093 32.6109 80.2934 32.6109 80.6938ZM49.5974 73.6727C49.5974 73.9714 49.5089 74.2633 49.343 74.5116C49.177 74.7599 48.9412 74.9534 48.6653 75.0677C48.3894 75.182 48.0858 75.2119 47.7929 75.1536C47.5 75.0954 47.231 74.9516 47.0198 74.7404C46.8087 74.5293 46.6649 74.2602 46.6066 73.9673C46.5483 73.6744 46.5783 73.3708 46.6925 73.0949C46.8068 72.819 47.0003 72.5832 47.2486 72.4173C47.497 72.2514 47.7889 72.1628 48.0875 72.1628C48.4855 72.1706 48.8651 72.3321 49.1466 72.6136C49.4281 72.8951 49.5897 73.2747 49.5974 73.6727ZM54.3537 35.6984H47.861V29.3945H54.3537V35.6984ZM45.7094 35.6984H39.2168V29.3945H45.7471L45.7094 35.6984ZM45.7094 37.8123V44.1539H39.2168V37.8123H45.7094ZM39.2168 46.2678H45.7471V52.5717H39.2168V46.2678ZM47.8233 46.2678H54.3159V52.5717H47.8233V46.2678ZM39.2168 54.6856H45.7471V61.1405H39.2168V54.6856ZM47.8233 54.6856H54.3159V61.1405H47.8233V54.6856ZM54.3159 39.3222V44.1539H47.8233V37.8123H54.3159V39.3222ZM54.3159 27.2429H47.8233V21.09H54.3159V27.2429ZM45.7471 21.09V27.2807H39.2168V21.09H45.7471ZM62.3184 85.9408C62.3184 86.2394 62.2299 86.5313 62.064 86.7797C61.8981 87.028 61.6623 87.2215 61.3864 87.3358C61.1105 87.4501 60.8069 87.4799 60.514 87.4217C60.2211 87.3634 59.952 87.2196 59.7409 87.0085C59.5297 86.7973 59.3859 86.5283 59.3276 86.2354C59.2694 85.9425 59.2993 85.6389 59.4136 85.363C59.5278 85.0871 59.7214 84.8513 59.9697 84.6853C60.218 84.5194 60.5099 84.4309 60.8085 84.4309C61.2025 84.4509 61.575 84.6165 61.8539 84.8954C62.1329 85.1743 62.2984 85.5468 62.3184 85.9408ZM78.5878 82.2038C78.2891 82.2038 77.9972 82.1152 77.7489 81.9493C77.5006 81.7834 77.3071 81.5476 77.1928 81.2717C77.0785 80.9958 77.0486 80.6922 77.1069 80.3993C77.1651 80.1064 77.3089 79.8373 77.5201 79.6262C77.7313 79.415 78.0003 79.2712 78.2932 79.2129C78.5861 79.1547 78.8897 79.1846 79.1656 79.2989C79.4415 79.4132 79.6773 79.6067 79.8432 79.855C80.0091 80.1033 80.0977 80.3952 80.0977 80.6938C80.0977 81.0943 79.9386 81.4784 79.6554 81.7615C79.3723 82.0447 78.9882 82.2038 78.5878 82.2038ZM56.4298 41.4361H70.3965V61.065H56.4298V41.4361ZM86.0618 57.6677C85.7632 57.6677 85.4713 57.5791 85.223 57.4132C84.9747 57.2473 84.7811 57.0115 84.6669 56.7356C84.5526 56.4597 84.5227 56.1561 84.5809 55.8632C84.6392 55.5703 84.783 55.3012 84.9942 55.0901C85.2053 54.8789 85.4744 54.7351 85.7673 54.6769C86.0602 54.6186 86.3638 54.6485 86.6397 54.7628C86.9156 54.8771 87.1514 55.0706 87.3173 55.3189C87.4832 55.5672 87.5717 55.8591 87.5717 56.1578C87.5717 56.5582 87.4127 56.9423 87.1295 57.2254C86.8463 57.5086 86.4623 57.6677 86.0618 57.6677Z" fill="url(#paint8_linear_173_107)"></path></g><defs><linearGradient id="paint0_linear_173_107" x1="12.495" y1="21.0032" x2="96.1593" y2="87.7149" gradientUnits="userSpaceOnUse"><stop stop-color="#47ABE0"></stop><stop offset="1" stop-color="#101331"></stop></linearGradient><linearGradient id="paint1_linear_173_107" x1="26.2013" y1="16.7981" x2="94.4645" y2="74.3182" gradientUnits="userSpaceOnUse"><stop stop-color="#47ABE0"></stop><stop offset="1" stop-color="#101331"></stop></linearGradient><linearGradient id="paint2_linear_173_107" x1="28.4132" y1="14.1746" x2="96.6763" y2="71.691" gradientUnits="userSpaceOnUse"><stop stop-color="#47ABE0"></stop><stop offset="1" stop-color="#101331"></stop></linearGradient><linearGradient id="paint3_linear_173_107" x1="23.5816" y1="19.9123" x2="91.841" y2="77.4287" gradientUnits="userSpaceOnUse"><stop stop-color="#47ABE0"></stop><stop offset="1" stop-color="#101331"></stop></linearGradient><linearGradient id="paint4_linear_173_107" x1="25.7897" y1="17.2889" x2="94.0529" y2="74.8052" gradientUnits="userSpaceOnUse"><stop stop-color="#47ABE0"></stop><stop offset="1" stop-color="#101331"></stop></linearGradient><linearGradient id="paint5_linear_173_107" x1="20.9393" y1="23.0453" x2="89.2024" y2="80.5617" gradientUnits="userSpaceOnUse"><stop stop-color="#47ABE0"></stop><stop offset="1" stop-color="#101331"></stop></linearGradient><linearGradient id="paint6_linear_173_107" x1="23.1511" y1="20.4219" x2="91.4105" y2="77.942" gradientUnits="userSpaceOnUse"><stop stop-color="#47ABE0"></stop><stop offset="1" stop-color="#101331"></stop></linearGradient><linearGradient id="paint7_linear_173_107" x1="7.42913" y1="39.0844" x2="75.6923" y2="96.6007" gradientUnits="userSpaceOnUse"><stop stop-color="#47ABE0"></stop><stop offset="1" stop-color="#101331"></stop></linearGradient><linearGradient id="paint8_linear_173_107" x1="16.0924" y1="28.7981" x2="84.3556" y2="86.3145" gradientUnits="userSpaceOnUse"><stop stop-color="#47ABE0"></stop><stop offset="1" stop-color="#101331"></stop></linearGradient><clipPath id="clip0_173_107"><rect width="107" height="107" fill="white" transform="translate(0.827148 0.857178)"></rect></clipPath></defs></svg> 