<?xml version="1.0" encoding="UTF-8"?> <svg xmlns="http://www.w3.org/2000/svg" width="107" height="108" viewBox="0 0 107 108" fill="none"><g clip-path="url(#clip0_173_135)"><path d="M53.5 2.97106C63.6645 2.96933 73.6012 5.98214 82.0532 11.6284C90.5052 17.2747 97.0928 25.3007 100.983 34.6914C104.873 44.082 105.89 54.4154 103.907 64.3845C101.924 74.3536 97.0281 83.5105 89.8399 90.697C80.2024 100.334 67.1313 105.749 53.5019 105.749C39.8725 105.749 26.8014 100.334 17.164 90.697C7.52654 81.0596 2.11229 67.9884 2.11229 54.3591C2.11229 40.7297 7.52654 27.6585 17.164 18.0211C21.9248 13.2347 27.5875 9.44007 33.8246 6.85674C40.0617 4.2734 46.7491 2.9527 53.5 2.97106ZM53.5 0.857178C42.9187 0.857178 32.575 3.9949 23.777 9.87355C14.979 15.7522 8.12176 24.1078 4.07247 33.8836C0.0231809 43.6595 -1.0363 54.4165 1.02801 64.7945C3.09232 75.1725 8.1877 84.7053 15.6698 92.1874C23.1519 99.6695 32.6847 104.765 43.0627 106.829C53.4407 108.894 64.1977 107.834 73.9736 103.785C83.7494 99.7354 92.105 92.8782 97.9837 84.0802C103.862 75.2822 107 64.9385 107 54.3572C106.999 40.1684 101.362 26.561 91.3291 16.5281C81.2962 6.49509 67.6888 0.858179 53.5 0.857178Z" fill="url(#paint0_linear_173_135)"></path><path d="M53.5 26.5597L75.8996 37.182C75.7863 46.4793 74.4689 53.1455 71.5548 59.2796C68.735 65.2173 64.2695 70.9814 56.1499 79.1538L53.5075 81.6112L50.8652 79.1538C42.7456 70.9776 38.2801 65.2173 35.4603 59.2796C32.5462 53.1455 31.2288 46.4793 31.1155 37.182L53.5151 26.5597M53.5151 24.2231L28.979 35.8495C28.979 56.1276 34.3317 65.5268 49.3817 80.675L53.5 84.4913L57.6183 80.675C72.6683 65.5268 78.021 56.1389 78.021 35.8495L53.4849 24.2231H53.5151Z" fill="url(#paint1_linear_173_135)"></path><path d="M53.5001 32.7163L70.0374 40.213V41.0397C70.0425 46.5936 68.9522 52.094 66.8289 57.226C64.6017 62.6239 60.257 67.4179 56.7162 70.9662L53.5001 74.2049L50.284 70.9662C46.7432 67.4065 42.3985 62.6239 40.1713 57.226C38.048 52.094 36.9577 46.5936 36.9628 41.0397V40.213L53.5001 32.7163ZM53.5001 30.5005C53.3434 30.5005 53.1887 30.5353 53.0471 30.6024L35.4415 38.5823C35.2641 38.6671 35.1143 38.8003 35.0095 38.9667C34.9046 39.133 34.8489 39.3256 34.8489 39.5222V41.0321C34.8436 46.8606 35.9878 52.6329 38.216 58.0187C40.4507 63.4355 44.6558 68.2898 48.7854 72.4459L52.7602 76.4471C52.8568 76.5453 52.972 76.6232 53.099 76.6765C53.226 76.7297 53.3624 76.7571 53.5001 76.7571C53.6378 76.7571 53.7742 76.7297 53.9012 76.6765C54.0282 76.6232 54.1434 76.5453 54.24 76.4471L58.2186 72.4459C62.3444 68.2936 66.5495 63.4355 68.788 58.0187C71.0162 52.6329 72.1604 46.8606 72.1551 41.0321V39.5222C72.1551 39.3256 72.0994 39.133 71.9945 38.9667C71.8896 38.8003 71.7398 38.6671 71.5624 38.5823L53.9531 30.6024C53.8115 30.5353 53.6568 30.5005 53.5001 30.5005Z" fill="url(#paint2_linear_173_135)"></path><path d="M59.502 47.5437L61.2648 49.2122L52.6168 57.8564L46.981 52.2207L48.457 50.741L50.8842 53.1682L52.3941 54.6781L53.904 53.1682L59.5322 47.5399M59.5095 45.0071C59.2334 45.0074 58.9686 45.1174 58.7735 45.3128L52.4092 51.6733L49.227 48.4912C49.1302 48.3941 49.0152 48.317 48.8886 48.2644C48.762 48.2118 48.6262 48.1848 48.4891 48.1848C48.3519 48.1848 48.2162 48.2118 48.0895 48.2644C47.9629 48.317 47.8479 48.3941 47.7511 48.4912L44.7577 51.4808C44.5597 51.682 44.4497 51.9535 44.4519 52.2358C44.4531 52.5118 44.5629 52.7763 44.7577 52.9719L51.9298 60.1251C52.0266 60.2222 52.1416 60.2993 52.2682 60.3519C52.3949 60.4044 52.5306 60.4315 52.6677 60.4315C52.8049 60.4315 52.9406 60.4044 53.0673 60.3519C53.1939 60.2993 53.3089 60.2222 53.4057 60.1251L63.5976 49.9332C63.6995 49.8356 63.7805 49.7184 63.8359 49.5886C63.8913 49.4589 63.9198 49.3193 63.9198 49.1782C63.9198 49.0371 63.8913 48.8975 63.8359 48.7678C63.7805 48.638 63.6995 48.5208 63.5976 48.4233L60.2758 45.2826C60.082 45.0997 59.8252 44.9983 59.5586 44.9995L59.5095 45.0071Z" fill="url(#paint3_linear_173_135)"></path></g><defs><linearGradient id="paint0_linear_173_135" x1="11.6679" y1="21.0032" x2="95.3322" y2="87.7149" gradientUnits="userSpaceOnUse"><stop stop-color="#47ABE0"></stop><stop offset="1" stop-color="#101331"></stop></linearGradient><linearGradient id="paint1_linear_173_135" x1="29.6773" y1="24.2382" x2="77.7794" y2="72.3403" gradientUnits="userSpaceOnUse"><stop stop-color="#47ABE0"></stop><stop offset="1" stop-color="#101331"></stop></linearGradient><linearGradient id="paint2_linear_173_135" x1="29.4774" y1="24.7968" x2="77.3869" y2="72.7063" gradientUnits="userSpaceOnUse"><stop stop-color="#47ABE0"></stop><stop offset="1" stop-color="#101331"></stop></linearGradient><linearGradient id="paint3_linear_173_135" x1="29.1339" y1="25.7066" x2="76.9868" y2="73.5633" gradientUnits="userSpaceOnUse"><stop stop-color="#47ABE0"></stop><stop offset="1" stop-color="#101331"></stop></linearGradient><clipPath id="clip0_173_135"><rect width="107" height="107" fill="white" transform="translate(0 0.857178)"></rect></clipPath></defs></svg> 