<?xml version="1.0" encoding="UTF-8"?> <svg xmlns="http://www.w3.org/2000/svg" width="108" height="108" viewBox="0 0 108 108" fill="none"><g clip-path="url(#clip0_173_65)"><path d="M53.9998 3.05797C64.1643 3.05624 74.1009 6.06905 82.5529 11.7153C91.005 17.3616 97.5926 25.3876 101.483 34.7783C105.373 44.169 106.39 54.5023 104.407 64.4714C102.423 74.4405 97.5279 83.5974 90.3396 90.7839C80.7022 100.421 67.631 105.836 54.0017 105.836C40.3723 105.836 27.3011 100.421 17.6637 90.7839C8.0263 81.1465 2.61205 68.0754 2.61205 54.446C2.61205 40.8166 8.0263 27.7455 17.6637 18.108C22.4245 13.3216 28.0873 9.52699 34.3244 6.94365C40.5614 4.36032 47.2489 3.03961 53.9998 3.05797ZM53.9998 0.944092C43.4185 0.944092 33.0748 4.08181 24.2768 9.96047C15.4787 15.8391 8.62151 24.1947 4.57223 33.9705C0.522937 43.7464 -0.536542 54.5034 1.52777 64.8814C3.59208 75.2594 8.68746 84.7922 16.1696 92.2743C23.6517 99.7564 33.1845 104.852 43.5624 106.916C53.9404 108.98 64.6975 107.921 74.4733 103.872C84.2492 99.8224 92.6047 92.9651 98.4834 84.1671C104.362 75.3691 107.5 65.0254 107.5 54.4441C107.499 40.2553 101.862 26.648 91.8289 16.615C81.7959 6.582 68.1886 0.945093 53.9998 0.944092Z" fill="url(#paint0_linear_173_65)"></path><path d="M31.0755 77.3834C27.6867 73.9966 25.0907 69.9009 23.4742 65.3909C21.8576 60.8808 21.2607 56.0686 21.7263 51.3002C22.192 46.5319 23.7086 41.9261 26.1671 37.814C28.6257 33.7019 31.965 30.1857 35.9449 27.5185L34.7747 30.2364L36.6999 31.0668L39.3422 24.9517L33.2271 22.3093L32.3966 24.2345L35.2277 25.4424C31.4146 27.9104 28.1257 31.1062 25.5491 34.8468C22.9726 38.5874 21.1591 42.7995 20.2125 47.2418C19.2658 51.6842 19.2045 56.2696 20.0322 60.7357C20.8598 65.2018 22.5601 69.4608 25.0358 73.2689C26.3537 75.2906 27.8712 77.1748 29.5655 78.8933C36.0158 85.3696 44.7725 89.0216 53.9129 89.0475C56.6085 89.0527 59.295 88.7359 61.9154 88.1038L61.4247 86.0277C56.0491 87.3041 50.4358 87.1796 45.122 85.6661C39.8083 84.1526 34.9718 81.3007 31.0755 77.3834Z" fill="url(#paint1_linear_173_65)"></path><path d="M79.0528 78.2139C83.7421 73.2866 86.8713 67.0839 88.0477 60.3844C89.2241 53.685 88.3953 46.7873 85.6654 40.5571C82.9354 34.327 78.426 29.0422 72.703 25.3659C66.9801 21.6897 60.2987 19.7859 53.4976 19.8935L53.5353 22.0074C59.9042 21.9083 66.1611 23.6878 71.5248 27.1234C76.8885 30.5591 81.1211 35.4987 83.6943 41.3255C86.2674 47.1523 87.067 53.6081 85.9931 59.8866C84.9193 66.1651 82.0196 71.9881 77.6562 76.6285L77.5807 73.6841L75.4668 73.7219L75.6178 80.4033L82.2992 80.2523L82.2614 78.1384L79.0528 78.2139ZM77.6939 78.1384L77.8072 78.2516H77.6939V78.1384Z" fill="url(#paint2_linear_173_65)"></path><path d="M53.9883 34.5397C50.0538 34.5397 46.2077 35.7064 42.9363 37.8923C39.6649 40.0781 37.1152 43.185 35.6095 46.82C34.1038 50.455 33.7099 54.4548 34.4775 58.3137C35.245 62.1726 37.1397 65.7172 39.9218 68.4993C42.7039 71.2814 46.2485 73.1761 50.1074 73.9436C53.9663 74.7112 57.9661 74.3173 61.6011 72.8116C65.2361 71.306 68.343 68.7562 70.5288 65.4848C72.7147 62.2134 73.8814 58.3673 73.8814 54.4328C73.8804 49.1571 71.7842 44.0978 68.0538 40.3673C64.3233 36.6369 59.264 34.5407 53.9883 34.5397ZM53.9883 72.212C50.4719 72.212 47.0345 71.1693 44.1107 69.2157C41.1869 67.2621 38.9081 64.4853 37.5625 61.2366C36.2168 57.9879 35.8647 54.4131 36.5507 50.9642C37.2367 47.5154 38.93 44.3474 41.4165 41.861C43.903 39.3745 47.0709 37.6812 50.5198 36.9952C53.9686 36.3092 57.5434 36.6612 60.7921 38.0069C64.0409 39.3526 66.8176 41.6314 68.7712 44.5552C70.7248 47.4789 71.7676 50.9164 71.7676 54.4328C71.7656 59.1475 69.8918 63.6686 66.5579 67.0024C63.2241 70.3362 58.7031 72.21 53.9883 72.212Z" fill="url(#paint3_linear_173_65)"></path><path d="M54.3658 52.8851C52.0254 52.2434 51.5725 51.6017 51.497 51.1109C51.4642 50.9526 51.4676 50.789 51.5068 50.6321C51.546 50.4753 51.62 50.3293 51.7234 50.205C52.1764 49.6388 52.9691 49.3746 53.9506 49.45C54.5134 49.4878 55.0585 49.6623 55.5386 49.9583C56.0188 50.2542 56.4196 50.6629 56.7062 51.1487L58.5181 50.054C58.1244 49.4139 57.6084 48.8577 56.9995 48.4172C56.3907 47.9768 55.7009 47.6607 54.9698 47.4872V44.2408H52.8559V47.4117C51.7839 47.5351 50.7989 48.0614 50.1003 48.8838C49.78 49.2583 49.5517 49.7026 49.4337 50.181C49.3158 50.6595 49.3113 51.1589 49.4208 51.6394C49.8738 53.6778 51.9877 54.5083 53.7996 54.999C55.1585 55.3765 56.1022 55.9804 56.5174 56.7731C56.6527 56.998 56.7364 57.25 56.7625 57.5111C56.7886 57.7722 56.7565 58.0359 56.6684 58.283C56.3287 59.4155 55.1207 59.6797 54.5923 59.7175C53.7831 59.7924 52.97 59.6241 52.2572 59.234C51.5443 58.844 50.9641 58.2499 50.591 57.5281L48.7036 58.5095C49.1198 59.2967 49.6984 59.9864 50.4013 60.533C51.1041 61.0797 51.915 61.4707 52.7804 61.6803V64.5114H54.8943V61.7181C56.7439 61.4916 58.1406 60.4347 58.6313 58.8115C58.792 58.2875 58.8447 57.7363 58.7863 57.1913C58.7279 56.6463 58.5596 56.1188 58.2916 55.6407C57.9141 54.7725 56.8194 53.5646 54.3658 52.8851Z" fill="url(#paint4_linear_173_65)"></path></g><defs><linearGradient id="paint0_linear_173_65" x1="12.1676" y1="21.0901" x2="95.8319" y2="87.8019" gradientUnits="userSpaceOnUse"><stop stop-color="#47ABE0"></stop><stop offset="1" stop-color="#101331"></stop></linearGradient><linearGradient id="paint1_linear_173_65" x1="12.0392" y1="32.6032" x2="77.46" y2="89.1721" gradientUnits="userSpaceOnUse"><stop stop-color="#47ABE0"></stop><stop offset="1" stop-color="#101331"></stop></linearGradient><linearGradient id="paint2_linear_173_65" x1="28.701" y1="13.3405" x2="94.118" y2="69.9094" gradientUnits="userSpaceOnUse"><stop stop-color="#47ABE0"></stop><stop offset="1" stop-color="#101331"></stop></linearGradient><linearGradient id="paint3_linear_173_65" x1="19.1886" y1="24.3402" x2="84.6056" y2="80.9091" gradientUnits="userSpaceOnUse"><stop stop-color="#47ABE0"></stop><stop offset="1" stop-color="#101331"></stop></linearGradient><linearGradient id="paint4_linear_173_65" x1="19.1659" y1="24.3628" x2="84.5867" y2="80.9318" gradientUnits="userSpaceOnUse"><stop stop-color="#47ABE0"></stop><stop offset="1" stop-color="#101331"></stop></linearGradient><clipPath id="clip0_173_65"><rect width="107" height="107" fill="white" transform="translate(0.499756 0.944092)"></rect></clipPath></defs></svg> 