<svg width="375" height="117" viewBox="0 0 375 117" fill="none" xmlns="http://www.w3.org/2000/svg">
<path d="M326.554 33.531L339.053 0.00531337H313.42C311.674 0.00531337 310.964 0.429955 310.16 2.09138L299.386 32.411C289.205 32.5756 278.203 33.4036 266.493 35.1712L254.734 2.08608C253.93 0.382193 253.226 0 251.475 0H225.841L225.905 0.164563H225.799L240.833 40.3996C232.567 42.5122 224.042 45.1238 215.3 48.2874C213.49 48.9403 211.686 49.5879 209.855 50.2938C208.569 50.8034 207.262 51.2387 205.929 51.6049L207.236 53.3935C207.236 53.3935 215.919 64.6095 216.157 64.8483C217.491 66.5575 219.237 67.3378 221.312 67.3113C222.571 67.2953 223.952 66.9875 225.439 66.3983C230.091 64.5405 237.626 61.4671 247.463 58.1389L269.387 116.804L269.366 116.867H269.414L269.467 117H295.407L295.454 116.867H295.523L295.502 116.804L323.035 42.9475C339.117 41.9071 356.563 42.1778 375 44.5558C375.058 44.6142 356.923 36.5831 326.549 33.5204V33.531H326.554ZM294.438 46.3287L282.447 80.0718L272.097 50.9467C278.986 49.2375 286.464 47.6664 294.438 46.3287Z" fill="white"/>
<path d="M192.413 79.4195C186.248 82.2328 180.316 85.1203 174.501 88.0291L192.143 115.079C192.873 116.199 194.117 116.873 195.451 116.873H223.275L196.567 77.5723C195.181 78.1933 193.805 78.7825 192.413 79.4195Z" fill="white"/>
<path d="M138.755 116.872C140.083 116.872 141.327 116.204 142.057 115.089L152 99.9397C141.957 105.556 132.511 111.23 123.689 116.878H138.755V116.872Z" fill="white"/>
<path d="M136.802 80.2205C143.629 76.2925 150.884 72.3433 158.578 68.4525C166.875 64.2485 174.929 60.4851 182.661 57.1092L221.608 0.0103673H194.62C193.281 0.0103673 192.038 0.68979 191.307 1.80979L167.844 37.9099L144.544 1.82042C143.814 0.689801 142.565 0.0103673 141.226 0.0103673H113.418L152.365 57.4436L136.802 80.2205Z" fill="white"/>
<path d="M79.5509 1.80475L56.0873 37.9048L32.7876 1.81536C32.0574 0.684747 30.8085 0.00531338 29.4697 0.00531338H1.66161L40.6088 57.4383L0 116.873H26.9985C28.3267 116.873 29.5703 116.204 30.3006 115.089L55.4258 76.8021L80.387 115.078C80.7627 115.652 81.276 116.103 81.8581 116.411C84.7157 114.335 87.9013 112.09 91.4838 109.707C91.4838 109.707 92.8332 108.895 94.1297 107.966C96.7015 106.129 99.2627 104.351 101.824 102.605L70.9042 57.0986L109.851 1.49874e-08H82.8635C81.5247 1.49874e-08 80.2812 0.679439 79.5509 1.79944V1.80475Z" fill="white"/>
</svg>
