<?xml version="1.0" encoding="UTF-8"?> <svg xmlns="http://www.w3.org/2000/svg" width="180" height="80" viewBox="0 0 180 80" fill="none"><g clip-path="url(#clip0_823_104)"><mask id="mask0_823_104" style="mask-type:luminance" maskUnits="userSpaceOnUse" x="0" y="0" width="180" height="80"><path d="M180 0H0V80H180V0Z" fill="white"></path></mask><g mask="url(#mask0_823_104)"><path d="M90.6918 78.3928L54.602 0L18.6172 78.3928H30.9696L54.7553 26.2857L66.8204 53.3742H48.9607L43.4992 65.8835H72.4864L78.3586 78.3928H90.6918Z" fill="black"></path><path d="M131.542 41.4264C128.275 37.3073 123.698 34.3703 118.65 33.1561C117.898 32.9875 111.262 31.4918 109.666 31.029C106.017 29.971 103.468 26.5643 103.468 22.7447C103.468 17.997 107.299 14.1344 112.008 14.1344C114.972 14.1344 117.709 15.697 119.256 18.1907L131.687 15.6483C128.742 7.37514 120.785 1.67529 112.008 1.67529C100.484 1.67529 91.1094 11.1262 91.1094 22.7447C91.1094 32.416 97.4171 40.77 106.455 43.0616L106.832 43.1507C108.047 43.4393 111.993 44.3775 115.744 45.2653C118.15 45.844 120.333 47.2449 121.89 49.2061C123.488 51.2218 124.334 53.657 124.334 56.2469C124.334 56.8101 124.292 57.3787 124.199 57.9949L124.074 58.6598C123.633 60.7061 122.632 62.5879 121.181 64.1004C119.17 66.1941 116.489 67.4124 113.573 67.5336L113.121 67.5364C110.45 67.5364 107.855 66.5649 105.812 64.8001C105.221 64.2886 104.69 63.7101 104.22 63.0829L91.4897 65.6867C95.0831 74.0421 103.185 79.7376 112.492 79.9886C112.593 79.9913 112.966 80.0026 113.139 80.0026C125.273 80.0026 135.577 70.4569 136.596 58.2736L136.65 57.68C136.679 57.185 136.694 56.7041 136.694 56.2496C136.694 50.8803 134.865 45.6167 131.544 41.4292L131.542 41.4264Z" fill="black"></path><path d="M0 3.33838V15.8714H0.00276529V78.3927H12.4093V15.8714H12.412V3.33838H0Z" fill="black"></path><path d="M155.158 65.8838H142.75V78.393H155.158V65.8838Z" fill="#6EFF29"></path><path d="M142.789 40.8262V53.3354H167.593V78.3931H180.001V40.8666L142.789 40.8262Z" fill="#6EFF29"></path></g></g><defs><clipPath id="clip0_823_104"><rect width="180" height="80" fill="white"></rect></clipPath></defs></svg> 