<?xml version="1.0" encoding="UTF-8"?> <svg xmlns="http://www.w3.org/2000/svg" xmlns:xlink="http://www.w3.org/1999/xlink" data-name="Outlined Gradient" viewBox="0 0 283.46 283.46"><defs><linearGradient id="a" x1="30.91" x2="252.55" y1="53.37" y2="230.1" gradientUnits="userSpaceOnUse"><stop offset="0" stop-color="#47abe0"></stop><stop offset="1" stop-color="#101331"></stop></linearGradient><linearGradient id="b" x1="77.43" x2="220.59" y1="585.59" y2="723.73" gradientTransform="translate(0 -506)" xlink:href="#a"></linearGradient></defs><path fill="url(#a)" d="M141.73 5.6A136.13 136.13 0 0 1 238 238 136.13 136.13 0 0 1 45.47 45.47 135.25 135.25 0 0 1 141.73 5.6m0-5.6a141.73 141.73 0 1 0 141.73 141.73A141.74 141.74 0 0 0 141.73 0z"></path><path fill="url(#b)" d="M152.1 106h13.2l.1.1H182l.1-.1h11.1c13.8 0 29 3.6 32.3 4.5a42.92 42.92 0 0 0 10.1 1.2v-5.6a35.48 35.48 0 0 1-8.6-1c-3.5-1-19.4-4.8-33.9-4.8h-10.7c-1.8-4.8-13.5-34.4-29.3-43.3v-8.4h-5.6v11.9l1.6.8c13.1 6 24 30.9 27.3 39h-8.6c-2-2.5-4.5-6-5.9-7.9a39.79 39.79 0 0 0-3.5-4.6l-.3-.2-.2-.1a4.93 4.93 0 0 0-6.8 1.8 5.53 5.53 0 0 0-.7 2.5v8.7a10 10 0 0 0-7.1 4.7v-3h-5.6v11.4a8.7 8.7 0 0 0-2.7 2.7 10.35 10.35 0 0 0-1.6 8.7 8.13 8.13 0 0 0-3.3 2.1v-24.8h-5.6V145l-.2.1a5.23 5.23 0 0 1-4.7-.6 3.79 3.79 0 0 1-1.8-2.9v-1.3h-.1V138.6l.1-3.3h-.1V133h.1v-5.6h-.1v-25.3H112v34.6c-.4 0-.9.1-1.2.1a5 5 0 0 1-4.8-3.8h.1a5 5 0 0 1-.2-1.2v-13.9l.1-.1v-16.1l-.1-.1V90.9c0-13.8 3.6-29 4.5-32.3a42.92 42.92 0 0 0 1.2-10.1H106a35.48 35.48 0 0 1-1 8.6c-1 3.5-4.8 19.4-4.8 33.9v10c-3.8 1.4-34.4 13.3-43.5 29.4h-8.4v5.6h11.9l.8-1.6c6.1-13.2 31.5-24.2 39.3-27.4v8.5c-2.5 2.1-6.2 4.7-8.1 6.1a31 31 0 0 0-4.6 3.5l-.2.3-.1.2a4.93 4.93 0 0 0 1.8 6.8 5.53 5.53 0 0 0 2.5.7h8.9a10.13 10.13 0 0 0 4 7.1H102v5.6h11.3a10.49 10.49 0 0 0 3 3.3 10.35 10.35 0 0 0 8.7 1.6 11.24 11.24 0 0 0 1.6 2.8H102v5.6h42.8l.1.3a5.23 5.23 0 0 1-.6 4.7 4 4 0 0 1-2.3 1.7h-1.8v.1h-1.9l-3.3-.1v.1h-33v5.6h34.6v1.1a5.17 5.17 0 0 1-3.5 4.8v-.2a4.67 4.67 0 0 1-1.7.3h-3.9v.1h-9.8l-.1-.1H102l-.1.1H90.6c-13.8 0-29-3.6-32.3-4.5a42.92 42.92 0 0 0-10.1-1.2v5.6a35.48 35.48 0 0 1 8.6 1c3.5 1 19.4 4.8 33.9 4.8h10.2c.9 2.5 13 34.5 29.5 43.8v8.4h5.6v-11.8l-1.6-.8c-13.4-6.2-24.5-32.1-27.5-39.5h8.4c2.1 2.5 4.8 6.4 6.3 8.4a31 31 0 0 0 3.5 4.6l.3.2.2.1a4.93 4.93 0 0 0 6.8-1.8 5.53 5.53 0 0 0 .7-2.5V183a10.28 10.28 0 0 0 7.1-4.3v3.1h5.6v-11.7a9.22 9.22 0 0 0 3-2.9 10.35 10.35 0 0 0 1.6-8.7 9.23 9.23 0 0 0 3-1.8v25.1h5.6V156h6.8v25.8h5.6V156h6.1v9.8a10 10 0 0 0-1.6 2l-.4.7a11.08 11.08 0 0 0 2 12.9V193c0 13.8-3.6 29-4.6 32.3a42.92 42.92 0 0 0-1.2 10.1h5.6a35.48 35.48 0 0 1 1-8.6c1-3.5 4.8-19.4 4.8-33.9v-10.4c2.5-.9 34.5-13 43.8-29.5h8.4v-5.6h-11.8l-.8 1.6c-6.9 14.8-38 26.9-41.3 28.2a5.48 5.48 0 0 1-.8-6.1l.3-.7a13.89 13.89 0 0 1 2.1-2.1v-.2c2.5-2.1 6.4-4.9 8.4-6.3a39.79 39.79 0 0 0 4.6-3.5l.2-.3.1-.2a4.93 4.93 0 0 0-1.8-6.8 5.53 5.53 0 0 0-2.5-.7h-47.6c-2.3 0-4.1-.8-5-2.2a4.42 4.42 0 0 1-.6-1.6 8.52 8.52 0 0 1 .2-3.2h4v-.1h38.5v-5.6h-45.3a3.74 3.74 0 0 1-3.7-3.6v-.1a4.62 4.62 0 0 1 1.1-3 3.58 3.58 0 0 1 2.5-1.1h1.3v.1h5.6v.1h38.5v-5.6h-42.7c0-.1-.1-.1-.1-.2a5.23 5.23 0 0 1 .6-4.7 3.79 3.79 0 0 1 2.9-1.8h.8v-.1h2.2l3.3.1v-.1h33V112h-34.6c0-.4-.1-.9-.1-1.2a5.27 5.27 0 0 1 3.2-4.7v.1c1-.1 1.5-.2 2.1-.2zm-56.6 20c1.8-1.2 3.4-2.4 4.9-3.5v4.9h-6.9c.6-.4 1.3-.9 2-1.4zm30.6 62.2c-1.3-1.9-2.6-3.6-3.7-5.2h5.2v7.1a7 7 0 0 1-1.5-1.9zm62.2-30.8c-1.9 1.3-3.6 2.6-5.2 3.8V156h7.1zm-54.7-14.6a13.6 13.6 0 0 0-.1 4.5 10.94 10.94 0 0 0 1.4 3.8 2.49 2.49 0 0 1-.8.1 4.62 4.62 0 0 1-3-1.1 3.58 3.58 0 0 1-1.1-2.5v-1.9h.1v-4.9a8.21 8.21 0 0 0 3.5 2zm23.8-47.1c1.2 1.7 2.3 3.2 3.4 4.6H156v-6.6z" data-name="Primary Icons"></path></svg> 