<?xml version="1.0" encoding="UTF-8"?> <svg xmlns="http://www.w3.org/2000/svg" viewBox="0 0 283.5 283.5"><linearGradient id="a" x1="105.318" x2="269.318" y1=".653" y2="199.653" gradientUnits="userSpaceOnUse"><stop offset="0" stop-color="#47abe0"></stop><stop offset="1" stop-color="#101331"></stop></linearGradient><path fill="url(#a)" d="M217.8 67.1V43.4l-24.2 24.2v20l-52 52c-1.1 1.1-1 2.9.1 4 1.1 1 2.8 1 3.9 0l52.3-52.3h19.4l24.2-24.2h-23.7zm-3 18.5h-15.5l-.2-.2V70l13-13.1v15.7h15.7l-13 13z"></path><linearGradient id="b" x1="58.716" x2="222.716" y1="39.058" y2="238.058" gradientUnits="userSpaceOnUse"><stop offset="0" stop-color="#47abe0"></stop><stop offset="1" stop-color="#101331"></stop></linearGradient><path fill="url(#b)" d="M218.4 99c23.6 42.3 8.4 95.8-33.9 119.4-28.9 16.1-64.3 14.6-91.8-3.9l-3.1 4.6c42.8 28.8 100.8 17.5 129.6-25.3 19.7-29.2 21.2-66.9 4.1-97.6l-4.9 2.8z"></path><linearGradient id="c" x1="55.829" x2="219.829" y1="41.438" y2="240.438" gradientUnits="userSpaceOnUse"><stop offset="0" stop-color="#47abe0"></stop><stop offset="1" stop-color="#101331"></stop></linearGradient><path fill="url(#c)" d="M96.9 66.3c13.6-8.1 29-12.3 44.8-12.3 15.4 0 30.5 4 43.8 11.7l2.8-4.8C143.6 35.2 86.5 50.6 60.8 95.3c-16.8 29.3-16.6 65.3.7 94.3l4.8-2.9C41.5 145 55.2 91.1 96.9 66.3z"></path><linearGradient id="d" x1="37.362" x2="201.362" y1="56.657" y2="255.657" gradientUnits="userSpaceOnUse"><stop offset="0" stop-color="#47abe0"></stop><stop offset="1" stop-color="#101331"></stop></linearGradient><path fill="url(#d)" d="M141.7 208.1v-5.6c-33.6 0-60.7-27.3-60.7-60.8 0-22.5 12.5-43.2 32.4-53.7l-2.6-5c-32.4 17.1-44.9 57.2-27.8 89.7 11.5 21.7 34.1 35.4 58.7 35.4z"></path><linearGradient id="e" x1="79.116" x2="243.116" y1="22.246" y2="221.246" gradientUnits="userSpaceOnUse"><stop offset="0" stop-color="#47abe0"></stop><stop offset="1" stop-color="#101331"></stop></linearGradient><path fill="url(#e)" d="M175.1 193c-.9.6-1.9 1.2-2.8 1.7l2.8 4.9c21.4-12.1 34.4-35.1 33.7-59.7-.3-12-3.9-23.7-10.4-33.8l-4.7 3c18 28.3 9.7 65.9-18.6 83.9z"></path><linearGradient id="f" x1="96.653" x2="260.653" y1="7.793" y2="206.793" gradientUnits="userSpaceOnUse"><stop offset="0" stop-color="#47abe0"></stop><stop offset="1" stop-color="#101331"></stop></linearGradient><path fill="url(#f)" d="M176.3 84.7c-10.8-6.4-23.2-9.6-35.7-9.2l.2 5.6c11.4-.3 22.7 2.6 32.6 8.4l2.9-4.8z"></path><linearGradient id="g" x1="51.84" x2="215.84" y1="44.725" y2="243.725" gradientUnits="userSpaceOnUse"><stop offset="0" stop-color="#47abe0"></stop><stop offset="1" stop-color="#101331"></stop></linearGradient><path fill="url(#g)" d="M137.1 176.6c-6.5-1.2-12.4-4.4-17-9l-4 3.9c12.2 12.2 31.1 14.8 46 6.1 9.5-5.6 16.1-15 18.2-25.8l-5.5-1c-3.3 17.5-20.1 29.1-37.7 25.8z"></path><linearGradient id="h" x1="59.724" x2="223.724" y1="38.227" y2="237.227" gradientUnits="userSpaceOnUse"><stop offset="0" stop-color="#47abe0"></stop><stop offset="1" stop-color="#101331"></stop></linearGradient><path fill="url(#h)" d="M159.3 106.4c-15.8-8.5-35.5-4.8-47.1 8.9-6.8 7.9-9.9 18.3-8.7 28.7l5.6-.6c-2-17.7 10.7-33.8 28.5-35.8 6.6-.7 13.2.5 19 3.7l2.7-4.9z"></path><linearGradient id="i" x1="57.762" x2="221.762" y1="39.845" y2="238.845" gradientUnits="userSpaceOnUse"><stop offset="0" stop-color="#47abe0"></stop><stop offset="1" stop-color="#101331"></stop></linearGradient><path fill="url(#i)" d="M141.7 0C63.5 0 0 63.5 0 141.7s63.5 141.7 141.7 141.7S283.5 220 283.5 141.7C283.5 63.5 220 0 141.7 0zM238 238c-53.2 53.2-139.4 53.2-192.5 0-53.2-53.2-53.2-139.4 0-192.5 25.5-25.6 60.1-40 96.3-39.9C217 5.6 277.9 66.5 278 141.7c-.1 36.1-14.5 70.8-40 96.3z"></path></svg> 