<?xml version="1.0" encoding="UTF-8"?> <svg xmlns="http://www.w3.org/2000/svg" xmlns:xlink="http://www.w3.org/1999/xlink" data-name="Outlined Gradient" viewBox="0 0 283.46 283.46"><defs><linearGradient id="a" x1="30.91" x2="252.55" y1="53.37" y2="230.1" gradientUnits="userSpaceOnUse"><stop offset="0" stop-color="#47abe0"></stop><stop offset="1" stop-color="#101331"></stop></linearGradient><linearGradient id="b" x1="70.48" x2="207.79" y1="578.4" y2="699.79" gradientTransform="translate(0 -506)" xlink:href="#a"></linearGradient></defs><path fill="url(#a)" d="M141.73 5.6A136.13 136.13 0 0 1 238 238 136.13 136.13 0 0 1 45.47 45.47 135.25 135.25 0 0 1 141.73 5.6m0-5.6a141.73 141.73 0 1 0 141.73 141.73A141.74 141.74 0 0 0 141.73 0z"></path><path fill="url(#b)" d="M226.3 148.1l9.4-8.3-3.7-4.2-5.3 4.7c-3.4-3.8-11.8-13-27.5-30.2a47.16 47.16 0 0 0-12.6-10L206.3 83l-3.7-4.2L181 97.6a44.45 44.45 0 0 0-14.5-2.8 52.24 52.24 0 0 0-27.3 7.3C127 92.3 107 91.6 94.5 97.3L73.3 78.7l-3.7 4.2 19.6 17-41.6 47.4 30.7 28.5a11 11 0 0 0 9.6 16.5h.3c0 .4-.1.7-.1 1.1a11 11 0 0 0 11 11 10.19 10.19 0 0 0 5.1-1.3 10.94 10.94 0 0 0 18.3 5.4 11 11 0 0 0 18.4 4.8l1.4-1.4 5.6-5.7 3.6 3.6a14.16 14.16 0 0 0 10.6 4.7 10.79 10.79 0 0 0 8.1-3.3 10.42 10.42 0 0 0 3.1-8.8c.2 0 .4.1.6.1a11.22 11.22 0 0 0 9.5-3.4 10.37 10.37 0 0 0 3-6.4 14.78 14.78 0 0 0 5.5 1.3 11.18 11.18 0 0 0 11-10.7 14.5 14.5 0 0 0-4.6-10.3l-.7-.7 28.7-24.2zM82.6 181.4a5.4 5.4 0 1 1 5.5 5.4 5.38 5.38 0 0 1-5.5-5.4zm16.5 17.5a5.38 5.38 0 0 1-5.4-5.4 5.68 5.68 0 0 1 1.1-3.3c.4-.5 2.8-2.8 6.9-7l.6-.6a5.37 5.37 0 0 1 7.6 0 5.46 5.46 0 0 1 1.6 3.8 5 5 0 0 1-1.2 3.3c-.6.6-4.2 4.3-6 6.1l-1.5 1.5a4.75 4.75 0 0 1-3.7 1.6zm19.7 5.6a5.13 5.13 0 0 1-3.9 1.6 5.38 5.38 0 0 1-5.4-5.4 5.68 5.68 0 0 1 1.1-3.3c.9-1 9.2-9.3 12-12.1l1.2-1.2a5.36 5.36 0 0 1 8 7.1l-11 11zm25.7-2.5c-.6.6-4.2 4.3-6 6.1l-1.5 1.5a5.13 5.13 0 0 1-3.9 1.6 5.38 5.38 0 0 1-5.4-5.4 5.68 5.68 0 0 1 1.1-3.3c.3-.4 1.9-1.9 7-7.1l.5-.5a5.38 5.38 0 0 1 7.6.4 5.31 5.31 0 0 1 .6 6.7zm51.2-14.9c-3.5 3.1-7.9.4-9.8-1.4-1.4-1.4-22.2-21.8-23.1-22.7l-3.9 4c.2.2 15 14.7 20.8 20.5.4.5 2.9 4.9-.1 7.9a5.74 5.74 0 0 1-4.9 1.8 8.66 8.66 0 0 1-5.1-2.6L150 174.9l-4 4 19.6 19.6.2.2c.5.6 4.1 5.1.5 8.9a5.74 5.74 0 0 1-4.1 1.6 9.25 9.25 0 0 1-6.5-3l-4.7-4.8a10.93 10.93 0 0 0-7.9-13.3 10.42 10.42 0 0 0-4.3-.2 11 11 0 0 0-11.2-10.8 11.18 11.18 0 0 0-7.6 3.2l-1.2 1.2-1.9 1.9a11.15 11.15 0 0 0-13.6-7.6 10.56 10.56 0 0 0-4.7 2.7 11 11 0 0 0-13.4-7.8 13.9 13.9 0 0 0-2.8 1.2l-26.9-25 36-41.1c7.2-7.2 29.4-10 42.9-.5-1.1.9-2.2 1.9-3.2 2.9-6.7 6.7-15 14.5-16 15.4s-6.9 5.6-7.3 11.7a10.84 10.84 0 0 0 3.5 8.6 10.18 10.18 0 0 0 8.2 3.3c6.8-.4 12.6-7 13.6-8.3l4.8-4.8.2-.2s2.9-3.5 6.5-3.7c2-.1 4 .8 5.9 2.8l44.1 44.1a8.85 8.85 0 0 1 2.9 6.2 5.8 5.8 0 0 1-1.9 3.8zm-41.2-58c-3.1-3.2-6.6-4.6-10.3-4.4-5.6.3-9.6 4.8-10.4 5.7l-4.8 4.8-.2.2c-1.3 1.7-5.7 6.1-9.6 6.3a4.48 4.48 0 0 1-3.9-1.7 5.13 5.13 0 0 1-1.8-4.2c.2-3.3 3.9-6.7 5.2-7.8l.2-.2c.1-.1 9.1-8.5 16.3-15.7 5.7-5.7 17.4-12.2 31.3-11.9a39.07 39.07 0 0 1 28.6 13.5c15.6 17.2 24 26.3 27.4 30.2l-28.6 24.6z" data-name="Primary Icons"></path></svg> 