<svg width="250" height="250" viewBox="0 0 250 250" fill="none" xmlns="http://www.w3.org/2000/svg">
<rect x="12" y="13" width="225" height="225" fill="#47ABE1"/>
<path d="M187 125.5C187 90.9822 159.018 63 124.5 63C89.9822 63 62 90.9822 62 125.5C62 156.695 84.8552 182.552 114.734 187.241V143.566H98.8652V125.5H114.734V111.73C114.734 96.0664 124.065 87.4141 138.342 87.4141C145.177 87.4141 152.332 88.6348 152.332 88.6348V104.016H144.451C136.688 104.016 134.266 108.834 134.266 113.781V125.5H151.6L148.829 143.566H134.266V187.241C164.145 182.552 187 156.695 187 125.5Z" fill="white"/>
</svg>
