<svg id="Layer_1" data-name="Layer 1" xmlns="http://www.w3.org/2000/svg" viewBox="0 0 358.1 246.8">
  <defs>
    <style />
  </defs>
  <path class="cls-1" d="M173,342.8l86.4-242.4c1.7-3.5,3.2-4.4,6.9-4.4h54.3L228.3,342.8H173" transform="translate(-38.9 -96)" />
  <path class="cls-1" d="M47.1,202.1c-1,.4-7.2,2.4-8.2,2.8l2.8,3.8,19,24.3c4.5,5.8,11.3,6.6,19.6,3.2,37.4-15,160.2-66.2,316.7-46C397,190.2,248.7,124.4,47.1,202.1Z" transform="translate(-38.9 -96)" />
  <path class="cls-1" d="M228.4,342.8H173.2L80.8,96h54.3c3.7,0,5.2.8,6.9,4.4l86.4,242.4" transform="translate(-38.9 -96)" />
  <path class="cls-1" d="M228.4,342.8H173.2L80.8,96h54.3c3.7,0,5.2.8,6.9,4.4l86.4,242.4" transform="translate(-38.9 -96)" />
</svg>